<?xml version="1.0" encoding="UTF-8" standalone="no"?>
<!-- Created with Inkscape (http://www.inkscape.org/) -->

<svg
   width="8.5in"
   height="11in"
   viewBox="0 0 215.9 279.4"
   version="1.1"
   id="svg5"
   xmlns:inkscape="http://www.inkscape.org/namespaces/inkscape"
   xmlns:sodipodi="http://sodipodi.sourceforge.net/DTD/sodipodi-0.dtd"
   xmlns="http://www.w3.org/2000/svg"
   xmlns:svg="http://www.w3.org/2000/svg">
<path style="fill:none;stroke:#ff0000;stroke-width:0.1;stroke-linejoin:round" d="M68.63013155617496 37.35777087639997 L 84.0 6.618033988749881 L 84.0 45.05450849718748"/><path style="fill:none;stroke:#ff0000;stroke-width:0.1;stroke-linejoin:round" d="M84.0 45.25450849718748 L 84.0 83.69098300562507 L 68.67485291572495 76.02840946348755"/><path style="fill:none;stroke:#ff0000;stroke-width:0.1;stroke-linejoin:round" d="M68.49596747752497 75.93896674438756 L 53.170820393249926 68.27639320225003 L 68.54068883707497 37.53665631459995"/>
<path style="fill:none;stroke:#ff0000;stroke-width:0.1;stroke-linejoin:round" d="M68.63013155617496 117.35777087639997 L 84.0 86.6180339887499 L 84.0 125.0545084971875"/><path style="fill:none;stroke:#ff0000;stroke-width:0.1;stroke-linejoin:round" d="M84.0 125.25450849718749 L 84.0 163.69098300562507 L 68.67485291572495 156.02840946348752"/><path style="fill:none;stroke:#ff0000;stroke-width:0.1;stroke-linejoin:round" d="M68.49596747752497 155.93896674438756 L 53.170820393249926 148.27639320225003 L 68.54068883707497 117.53665631459995"/>
<path style="fill:none;stroke:#ff0000;stroke-width:0.1;stroke-linejoin:round" d="M37.26429563482496 100.08944271909999 L 21.894427190999917 130.82917960675007 L 52.64360679774999 107.76729490168752"/><path style="fill:none;stroke:#ff0000;stroke-width:0.1;stroke-linejoin:round" d="M52.803606797749985 107.64729490168752 L 83.55278640450005 84.58541019662496 L 68.22763932022502 76.92283665448744"/><path style="fill:none;stroke:#ff0000;stroke-width:0.1;stroke-linejoin:round" d="M68.04875388202504 76.83339393538745 L 52.723606797749994 69.17082039324993 L 37.35373835392495 99.91055728090001"/>
<path style="fill:none;stroke:#ff0000;stroke-width:0.1;stroke-linejoin:round" d="M51.642229123600025 148.63013155617494 L 82.3819660112501 164.0 L 43.94549150281252 164.0"/><path style="fill:none;stroke:#ff0000;stroke-width:0.1;stroke-linejoin:round" d="M43.74549150281252 164.0 L 5.30901699437494 164.0 L 12.971590536512457 148.67485291572495"/><path style="fill:none;stroke:#ff0000;stroke-width:0.1;stroke-linejoin:round" d="M13.061033255612449 148.49596747752497 L 20.723606797749966 133.17082039324993 L 51.46334368540004 148.54068883707498"/>
<path style="fill:none;stroke:#ff0000;stroke-width:0.1;stroke-linejoin:round" d="M5.0 83.79098300562505 L 5.0 162.3819660112501 L 44.30077014326253 83.78042572472505"/><path style="fill:none;stroke:#ff0000;stroke-width:0.1;stroke-linejoin:round" d="M44.390212862362525 83.60154028652506 L 83.69098300562506 5.0 L 44.44549150281253 5.0"/><path style="fill:none;stroke:#ff0000;stroke-width:0.1;stroke-linejoin:round" d="M44.24549150281253 5.0 L 5.0 5.0 L 5.0 83.59098300562506"/>
<path style="fill:none;stroke:#ff0000;stroke-width:0.1;stroke-linejoin:round" d="M67.73570436517504 116.91055728090001 L 83.10557280900007 86.17082039324995 L 52.356393202250004 109.23270509831248"/><path style="fill:none;stroke:#ff0000;stroke-width:0.1;stroke-linejoin:round" d="M52.19639320225001 109.35270509831248 L 21.447213595499953 132.414589803375 L 36.77236067977499 140.07716334551256"/><path style="fill:none;stroke:#ff0000;stroke-width:0.1;stroke-linejoin:round" d="M36.951246117974975 140.16660606461252 L 52.27639320225002 147.82917960675005 L 67.64626164607505 117.08944271909999"/>
<path style="fill:none;stroke:#ff0000;stroke-width:0.1;stroke-linejoin:round" d="M0 0 L0.0 169.0 L89.0 169.0 L89.0 0.0 Z"/>
<path style="fill:none;stroke:#ff0000;stroke-width:0.1;stroke-linejoin:round" d="M0 0 L203.2 0 L203.2 266.7 L0 266.7 Z"/>
<path style="fill:none;stroke:#ff0000;stroke-width:0.1;stroke-linejoin:round" d="M6.720696336125804 173.94721359549996 L 4.764999470001589 173.94721359549996 L 4.764999470001589 177.90860732774837"/><path style="fill:none;stroke:#ff0000;stroke-width:0.1;stroke-linejoin:round" d="M4.764999470001589 178.0086073277484 L 4.764999470001589 181.97000105999683 L 6.748335656350806 178.00332868729836"/><path style="fill:none;stroke:#ff0000;stroke-width:0.1;stroke-linejoin:round" d="M6.793057015900802 177.9138859681984 L 8.776393202250018 173.94721359549996 L 6.8206963361258035 173.94721359549996"/>
<path style="fill:none;stroke:#ff0000;stroke-width:0.1;stroke-linejoin:round" d="M16.69569633612581 173.94721359549996 L 14.764999470001612 173.94721359549996 L 14.764999470001612 177.8836073277484"/><path style="fill:none;stroke:#ff0000;stroke-width:0.1;stroke-linejoin:round" d="M14.764999470001612 178.03360732774837 L 14.764999470001612 181.9700010599968 L 16.737155316463312 178.02568936707337"/><path style="fill:none;stroke:#ff0000;stroke-width:0.1;stroke-linejoin:round" d="M16.804237355788306 177.8915252884234 L 18.776393202250006 173.94721359549996 L 16.84569633612581 173.94721359549996"/>
<path style="fill:none;stroke:#ff0000;stroke-width:0.1;stroke-linejoin:round" d="M26.670696336125772 173.94721359550005 L 24.764999470001566 173.94721359550005 L 24.764999470001566 177.85860732774844"/><path style="fill:none;stroke:#ff0000;stroke-width:0.1;stroke-linejoin:round" d="M24.764999470001566 178.05860732774843 L 24.764999470001566 181.97000105999686 L 26.725974976575777 178.04805004684843"/><path style="fill:none;stroke:#ff0000;stroke-width:0.1;stroke-linejoin:round" d="M26.81541769567577 177.86916460864845 L 28.776393202249984 173.94721359550005 L 26.870696336125775 173.94721359550005"/>
<path style="fill:none;stroke:#ff0000;stroke-width:0.1;stroke-linejoin:round" d="M36.64569633612578 173.94721359550005 L 34.76499947000157 173.94721359550005 L 34.76499947000157 177.83360732774844"/><path style="fill:none;stroke:#ff0000;stroke-width:0.1;stroke-linejoin:round" d="M34.76499947000157 178.08360732774844 L 34.76499947000157 181.97000105999686 L 36.71479463668829 178.07041072662344"/><path style="fill:none;stroke:#ff0000;stroke-width:0.1;stroke-linejoin:round" d="M36.82659803556327 177.84680392887344 L 38.776393202249984 173.94721359550005 L 36.89569633612578 173.94721359550005"/>
<path style="fill:none;stroke:#ff0000;stroke-width:0.1;stroke-linejoin:round" d="M46.520696336125866 173.94721359549985 L 44.764999470001655 173.94721359549985 L 44.764999470001655 177.70860732774827"/><path style="fill:none;stroke:#ff0000;stroke-width:0.1;stroke-linejoin:round" d="M44.764999470001655 178.20860732774827 L 44.764999470001655 181.9700010599967 L 46.658892937250876 178.18221412549823"/><path style="fill:none;stroke:#ff0000;stroke-width:0.1;stroke-linejoin:round" d="M46.882499735000856 177.7350005299983 L 48.77639320225008 173.94721359549985 L 47.020696336125866 173.94721359549985"/>

</svg>