<?xml version="1.0" encoding="UTF-8" standalone="no"?>
<!-- Created with Inkscape (http://www.inkscape.org/) -->

<svg
   width="8.5in"
   height="11in"
   viewBox="0 0 215.9 279.4"
   version="1.1"
   id="svg5"
   xmlns:inkscape="http://www.inkscape.org/namespaces/inkscape"
   xmlns:sodipodi="http://sodipodi.sourceforge.net/DTD/sodipodi-0.dtd"
   xmlns="http://www.w3.org/2000/svg"
   xmlns:svg="http://www.w3.org/2000/svg">
<path style="fill:none;stroke:#ff0000;stroke-width:0.1;stroke-linejoin:round" d="M55.200000000000045 54.99098300562512 L 55.200000000000045 56.78196601125018 L 54.29922985673751 54.98042572472511"/><path style="fill:none;stroke:#ff0000;stroke-width:0.1;stroke-linejoin:round" d="M54.20978713763752 54.801540286525125 L 53.309016994374986 53.000000000000064 L 54.154508497187514 53.000000000000064"/><path style="fill:none;stroke:#ff0000;stroke-width:0.1;stroke-linejoin:round" d="M54.35450849718752 53.000000000000064 L 55.200000000000045 53.000000000000064 L 55.200000000000045 54.790983005625115"/>
<path style="fill:none;stroke:#ff0000;stroke-width:0.1;stroke-linejoin:round" d="M64.79999999999998 78.80901699437489 L 64.79999999999998 77.01803398874982 L 63.89922985673745 78.81957427527489"/><path style="fill:none;stroke:#ff0000;stroke-width:0.1;stroke-linejoin:round" d="M63.80978713763746 78.99845971347487 L 62.909016994374916 80.79999999999994 L 63.75450849718745 80.79999999999994"/><path style="fill:none;stroke:#ff0000;stroke-width:0.1;stroke-linejoin:round" d="M63.954508497187454 80.79999999999994 L 64.79999999999998 80.79999999999994 L 64.79999999999998 79.00901699437487"/>
<path style="fill:none;stroke:#ff0000;stroke-width:0.1;stroke-linejoin:round" d="M68.00000000000001 16.590983005625095 L 68.00000000000001 18.381966011250157 L 67.09922985673747 16.580425724725085"/><path style="fill:none;stroke:#ff0000;stroke-width:0.1;stroke-linejoin:round" d="M67.00978713763747 16.4015402865251 L 66.10901699437494 14.60000000000003 L 66.95450849718748 14.60000000000003"/><path style="fill:none;stroke:#ff0000;stroke-width:0.1;stroke-linejoin:round" d="M67.15450849718746 14.60000000000003 L 68.00000000000001 14.60000000000003 L 68.00000000000001 16.390983005625092"/>
<path style="fill:none;stroke:#ff0000;stroke-width:0.1;stroke-linejoin:round" d="M24.948137767415016 73.00123222922002 L 19.294427190999933 74.02917960675003 L 24.44360679775 70.16729490168748"/><path style="fill:none;stroke:#ff0000;stroke-width:0.1;stroke-linejoin:round" d="M24.60360679775 70.04729490168748 L 29.752786404500068 66.18541019662494 L 30.257815821355077 68.96307198932749"/><path style="fill:none;stroke:#ff0000;stroke-width:0.1;stroke-linejoin:round" d="M30.293592908995077 69.15984597134747 L 30.798622325850086 71.93750776405001 L 25.144911749435 72.96545514158004"/>
<path style="fill:none;stroke:#ff0000;stroke-width:0.1;stroke-linejoin:round" d="M26.07458980337504 87.43278640450005 L 34.829179606750074 99.10557280900011 L 20.22763932022501 91.80480266573757"/><path style="fill:none;stroke:#ff0000;stroke-width:0.1;stroke-linejoin:round" d="M20.048753882025025 91.71535994663758 L 5.447213595499962 84.41458980337504 L 11.243606797749985 80.06729490168752"/><path style="fill:none;stroke:#ff0000;stroke-width:0.1;stroke-linejoin:round" d="M11.403606797749985 79.94729490168751 L 17.20000000000001 75.60000000000001 L 25.954589803375043 87.27278640450005"/>
<path style="fill:none;stroke:#ff0000;stroke-width:0.1;stroke-linejoin:round" d="M36.99999999999999 88.4090169943749 L 36.99999999999999 86.61803398874983 L 37.90077014326253 88.4195742752749"/><path style="fill:none;stroke:#ff0000;stroke-width:0.1;stroke-linejoin:round" d="M37.99021286236252 88.59845971347488 L 38.89098300562505 90.39999999999995 L 38.045491502812524 90.39999999999995"/><path style="fill:none;stroke:#ff0000;stroke-width:0.1;stroke-linejoin:round" d="M37.84549150281252 90.39999999999995 L 36.99999999999999 90.39999999999995 L 36.99999999999999 88.60901699437488"/>
<path style="fill:none;stroke:#ff0000;stroke-width:0.1;stroke-linejoin:round" d="M11.757770876399967 7.569868443825035 L 6.618033988749895 5.0 L 13.054508497187472 5.0"/><path style="fill:none;stroke:#ff0000;stroke-width:0.1;stroke-linejoin:round" d="M13.254508497187471 5.0 L 19.69098300562505 5.0 L 18.428409463487533 7.525147084275039"/><path style="fill:none;stroke:#ff0000;stroke-width:0.1;stroke-linejoin:round" d="M18.33896674438754 7.704032522475023 L 17.07639320225002 10.229179606750062 L 11.93665631459995 7.659311162925027"/>
<path style="fill:none;stroke:#ff0000;stroke-width:0.1;stroke-linejoin:round" d="M74.19098300562513 113.79999999999998 L 75.98196601125004 113.79999999999998 L 74.18042572472513 114.70077014326243"/><path style="fill:none;stroke:#ff0000;stroke-width:0.1;stroke-linejoin:round" d="M74.00154028652514 114.79021286236242 L 72.20000000000022 115.69098300562487 L 72.20000000000022 114.84549150281242"/><path style="fill:none;stroke:#ff0000;stroke-width:0.1;stroke-linejoin:round" d="M72.20000000000022 114.64549150281243 L 72.20000000000022 113.79999999999998 L 73.99098300562514 113.79999999999998"/>
<path style="fill:none;stroke:#ff0000;stroke-width:0.1;stroke-linejoin:round" d="M80.53570436517508 125.68944271910001 L 83.10557280900018 130.82917960675022 L 77.95639320225 126.96729490168757"/><path style="fill:none;stroke:#ff0000;stroke-width:0.1;stroke-linejoin:round" d="M77.79639320225 126.84729490168756 L 72.6472135954998 122.98541019662491 L 75.1723606797749 121.72283665448738"/><path style="fill:none;stroke:#ff0000;stroke-width:0.1;stroke-linejoin:round" d="M75.35124611797488 121.63339393538739 L 77.87639320224999 120.37082039324984 L 80.44626164607509 125.51055728090003"/>
<path style="fill:none;stroke:#ff0000;stroke-width:0.1;stroke-linejoin:round" d="M33.07278640450008 86.44541019662499 L 34.50557280900016 85.37082039324994 L 32.52387849382255 85.73112845055496"/><path style="fill:none;stroke:#ff0000;stroke-width:0.1;stroke-linejoin:round" d="M32.327104511802574 85.76690553819495 L 30.34541019662496 86.12721359549998 L 30.852705098312487 86.80360679775002"/><path style="fill:none;stroke:#ff0000;stroke-width:0.1;stroke-linejoin:round" d="M30.972705098312485 86.96360679775002 L 31.480000000000008 87.64000000000004 L 32.91278640450008 86.565410196625"/>
<path style="fill:none;stroke:#ff0000;stroke-width:0.1;stroke-linejoin:round" d="M74.19098300562497 112.79999999999988 L 75.98196601125002 112.79999999999988 L 74.18042572472497 111.89922985673735"/><path style="fill:none;stroke:#ff0000;stroke-width:0.1;stroke-linejoin:round" d="M74.00154028652499 111.80978713763736 L 72.19999999999993 110.90901699437482 L 72.19999999999993 111.75450849718736"/><path style="fill:none;stroke:#ff0000;stroke-width:0.1;stroke-linejoin:round" d="M72.19999999999993 111.95450849718735 L 72.19999999999993 112.79999999999988 L 73.99098300562498 112.79999999999988"/>
<path style="fill:none;stroke:#ff0000;stroke-width:0.1;stroke-linejoin:round" d="M61.68721359549993 42.234589803375016 L 60.254427190999856 43.309179606750064 L 62.23612150617747 42.94887154944505"/><path style="fill:none;stroke:#ff0000;stroke-width:0.1;stroke-linejoin:round" d="M62.432895488197445 42.91309446180505 L 64.41458980337505 42.55278640450003 L 63.90729490168753 41.87639320225"/><path style="fill:none;stroke:#ff0000;stroke-width:0.1;stroke-linejoin:round" d="M63.787294901687524 41.71639320225 L 63.28 41.039999999999964 L 61.84721359549992 42.11458980337501"/>
<path style="fill:none;stroke:#ff0000;stroke-width:0.1;stroke-linejoin:round" d="M39.19999999999998 82.00901699437495 L 39.19999999999998 80.21803398874988 L 38.299229856737455 82.01957427527495"/><path style="fill:none;stroke:#ff0000;stroke-width:0.1;stroke-linejoin:round" d="M38.20978713763746 82.19845971347493 L 37.30901699437493 83.99999999999999 L 38.15450849718746 83.99999999999999"/><path style="fill:none;stroke:#ff0000;stroke-width:0.1;stroke-linejoin:round" d="M38.35450849718746 83.99999999999999 L 39.19999999999998 83.99999999999999 L 39.19999999999998 82.20901699437493"/>
<path style="fill:none;stroke:#ff0000;stroke-width:0.1;stroke-linejoin:round" d="M40.20000000000002 85.20901699437502 L 40.20000000000002 83.41803398874995 L 41.10077014326255 85.21957427527502"/><path style="fill:none;stroke:#ff0000;stroke-width:0.1;stroke-linejoin:round" d="M41.19021286236254 85.398459713475 L 42.090983005625084 87.20000000000006 L 41.24549150281255 87.20000000000006"/><path style="fill:none;stroke:#ff0000;stroke-width:0.1;stroke-linejoin:round" d="M41.045491502812546 87.20000000000006 L 40.20000000000002 87.20000000000006 L 40.20000000000002 85.40901699437501"/>
<path style="fill:none;stroke:#ff0000;stroke-width:0.1;stroke-linejoin:round" d="M23.28944271909999 13.335704365175046 L 28.42917960675006 15.90557280900008 L 24.567294901687514 10.756393202250017"/><path style="fill:none;stroke:#ff0000;stroke-width:0.1;stroke-linejoin:round" d="M24.447294901687517 10.596393202250017 L 20.585410196624967 5.447213595499953 L 19.322836654487446 7.972360679774994"/><path style="fill:none;stroke:#ff0000;stroke-width:0.1;stroke-linejoin:round" d="M19.233393935387454 8.151246117974978 L 17.970820393249937 10.676393202250019 L 23.110557280900007 13.246261646075054"/>
<path style="fill:none;stroke:#ff0000;stroke-width:0.1;stroke-linejoin:round" d="M59.3105572809 24.464295634824936 L 54.17082039324993 21.894427190999902 L 58.03270509831246 27.04360679774996"/><path style="fill:none;stroke:#ff0000;stroke-width:0.1;stroke-linejoin:round" d="M58.15270509831247 27.203606797749956 L 62.014589803375 32.35278640450001 L 63.27716334551253 29.827639320224975"/><path style="fill:none;stroke:#ff0000;stroke-width:0.1;stroke-linejoin:round" d="M63.36660606461252 29.64875388202499 L 64.62917960675004 27.123606797749957 L 59.48944271909998 24.553738353924928"/>
<path style="fill:none;stroke:#ff0000;stroke-width:0.1;stroke-linejoin:round" d="M35.999999999999986 112.59098300562496 L 35.999999999999986 114.38196601125001 L 35.09922985673745 112.58042572472496"/><path style="fill:none;stroke:#ff0000;stroke-width:0.1;stroke-linejoin:round" d="M35.00978713763746 112.40154028652498 L 34.10901699437492 110.59999999999991 L 34.954508497187454 110.59999999999991"/><path style="fill:none;stroke:#ff0000;stroke-width:0.1;stroke-linejoin:round" d="M35.15450849718746 110.59999999999991 L 35.999999999999986 110.59999999999991 L 35.999999999999986 112.39098300562497"/>
<path style="fill:none;stroke:#ff0000;stroke-width:0.1;stroke-linejoin:round" d="M51.999999999999986 56.40901699437506 L 51.999999999999986 54.61803398875 L 51.09922985673745 56.41957427527507"/><path style="fill:none;stroke:#ff0000;stroke-width:0.1;stroke-linejoin:round" d="M51.00978713763746 56.59845971347505 L 50.109016994374926 58.40000000000013 L 50.954508497187454 58.40000000000013"/><path style="fill:none;stroke:#ff0000;stroke-width:0.1;stroke-linejoin:round" d="M51.15450849718746 58.40000000000013 L 51.999999999999986 58.40000000000013 L 51.999999999999986 56.60901699437506"/>
<path style="fill:none;stroke:#ff0000;stroke-width:0.1;stroke-linejoin:round" d="M59.757770876399945 17.430131556174967 L 54.61803398874988 20.0 L 61.05450849718745 20.0"/><path style="fill:none;stroke:#ff0000;stroke-width:0.1;stroke-linejoin:round" d="M61.25450849718745 20.0 L 67.69098300562503 20.000000000000004 L 66.42840946348751 17.474852915724966"/><path style="fill:none;stroke:#ff0000;stroke-width:0.1;stroke-linejoin:round" d="M66.33896674438752 17.295967477524982 L 65.07639320224999 14.770820393249942 L 59.93665631459993 17.340688837074975"/>
<path style="fill:none;stroke:#ff0000;stroke-width:0.1;stroke-linejoin:round" d="M30.554589803375052 88.07278640450001 L 31.629179606750085 89.50557280900007 L 29.827639320225018 88.60480266573754"/><path style="fill:none;stroke:#ff0000;stroke-width:0.1;stroke-linejoin:round" d="M29.648753882025034 88.51535994663755 L 27.84721359549997 87.61458980337501 L 28.52360679775 87.10729490168748"/><path style="fill:none;stroke:#ff0000;stroke-width:0.1;stroke-linejoin:round" d="M28.683606797749995 86.98729490168748 L 29.36000000000002 86.47999999999996 L 30.434589803375054 87.91278640450001"/>
<path style="fill:none;stroke:#ff0000;stroke-width:0.1;stroke-linejoin:round" d="M43.39999999999994 83.7909830056251 L 43.39999999999994 85.58196601125016 L 44.30077014326248 83.78042572472509"/><path style="fill:none;stroke:#ff0000;stroke-width:0.1;stroke-linejoin:round" d="M44.390212862362475 83.60154028652511 L 45.29098300562501 81.80000000000003 L 44.44549150281248 81.80000000000003"/><path style="fill:none;stroke:#ff0000;stroke-width:0.1;stroke-linejoin:round" d="M44.24549150281248 81.80000000000003 L 43.39999999999994 81.80000000000003 L 43.39999999999994 83.5909830056251"/>
<path style="fill:none;stroke:#ff0000;stroke-width:0.1;stroke-linejoin:round" d="M69.0 19.790983005625044 L 69.0 34.381966011250086 L 76.30077014326253 19.780425724725035"/><path style="fill:none;stroke:#ff0000;stroke-width:0.1;stroke-linejoin:round" d="M76.39021286236252 19.60154028652505 L 83.69098300562504 5.0 L 76.44549150281252 5.0"/><path style="fill:none;stroke:#ff0000;stroke-width:0.1;stroke-linejoin:round" d="M76.24549150281253 5.0 L 69.0 5.0 L 69.0 19.59098300562504"/>
<path style="fill:none;stroke:#ff0000;stroke-width:0.1;stroke-linejoin:round" d="M51.24541019662497 62.327213595499906 L 50.17082039324993 60.89442719099986 L 50.53112845055495 62.87612150617743"/><path style="fill:none;stroke:#ff0000;stroke-width:0.1;stroke-linejoin:round" d="M50.56690553819495 63.0728954881974 L 50.92721359549997 65.05458980337497 L 51.60360679774999 64.54729490168745"/><path style="fill:none;stroke:#ff0000;stroke-width:0.1;stroke-linejoin:round" d="M51.763606797749986 64.42729490168745 L 52.440000000000005 63.919999999999945 L 51.36541019662497 62.4872135954999"/>
<path style="fill:none;stroke:#ff0000;stroke-width:0.1;stroke-linejoin:round" d="M51.79098300562506 5.0 L 66.38196601125011 5.0 L 51.78042572472505 12.300770143262532"/><path style="fill:none;stroke:#ff0000;stroke-width:0.1;stroke-linejoin:round" d="M51.601540286525065 12.390212862362525 L 37.0 19.690983005625057 L 37.0 12.445491502812528"/><path style="fill:none;stroke:#ff0000;stroke-width:0.1;stroke-linejoin:round" d="M37.0 12.245491502812529 L 37.0 5.0 L 51.590983005625056 5.0"/>
<path style="fill:none;stroke:#ff0000;stroke-width:0.1;stroke-linejoin:round" d="M55.289442719099995 11.66429563482496 L 60.42917960675006 9.09442719099993 L 56.56729490168752 14.243606797749981"/><path style="fill:none;stroke:#ff0000;stroke-width:0.1;stroke-linejoin:round" d="M56.44729490168751 14.403606797749982 L 52.58541019662497 19.552786404500033 L 51.322836654487446 17.027639320225"/><path style="fill:none;stroke:#ff0000;stroke-width:0.1;stroke-linejoin:round" d="M51.233393935387454 16.848753882025015 L 49.97082039324994 14.323606797749983 L 55.11055728090001 11.753738353924952"/>
<path style="fill:none;stroke:#ff0000;stroke-width:0.1;stroke-linejoin:round" d="M33.800000000000004 114.009016994375 L 33.800000000000004 112.21803398875002 L 34.7007701432625 114.019574275275"/><path style="fill:none;stroke:#ff0000;stroke-width:0.1;stroke-linejoin:round" d="M34.790212862362495 114.19845971347499 L 35.69098300562499 115.99999999999999 L 34.8454915028125 115.99999999999999"/><path style="fill:none;stroke:#ff0000;stroke-width:0.1;stroke-linejoin:round" d="M34.6454915028125 115.99999999999999 L 33.800000000000004 115.99999999999999 L 33.800000000000004 114.20901699437499"/>
<path style="fill:none;stroke:#ff0000;stroke-width:0.1;stroke-linejoin:round" d="M43.757770876399974 23.569868443825037 L 38.61803398874989 21.0 L 45.05450849718748 21.0"/><path style="fill:none;stroke:#ff0000;stroke-width:0.1;stroke-linejoin:round" d="M45.25450849718748 21.0 L 51.69098300562506 21.0 L 50.42840946348754 23.52514708427504"/><path style="fill:none;stroke:#ff0000;stroke-width:0.1;stroke-linejoin:round" d="M50.33896674438755 23.704032522475025 L 49.07639320225003 26.22917960675007 L 43.93665631459996 23.65931116292503"/>
<path style="fill:none;stroke:#ff0000;stroke-width:0.1;stroke-linejoin:round" d="M55.927213595499914 82.55458980337505 L 54.494427190999986 83.62917960675 L 56.47612150617739 83.26887154944501"/><path style="fill:none;stroke:#ff0000;stroke-width:0.1;stroke-linejoin:round" d="M56.67289548819737 83.23309446180502 L 58.65458980337478 82.87278640450003 L 58.14729490168732 82.19639320225006"/><path style="fill:none;stroke:#ff0000;stroke-width:0.1;stroke-linejoin:round" d="M58.02729490168731 82.03639320225007 L 57.51999999999984 81.3600000000001 L 56.08721359549991 82.43458980337505"/>
<path style="fill:none;stroke:#ff0000;stroke-width:0.1;stroke-linejoin:round" d="M45.59999999999994 85.20901699437505 L 45.59999999999994 83.41803398875011 L 44.699229856737475 85.21957427527505"/><path style="fill:none;stroke:#ff0000;stroke-width:0.1;stroke-linejoin:round" d="M44.60978713763748 85.39845971347503 L 43.70901699437501 87.19999999999996 L 44.55450849718748 87.19999999999996"/><path style="fill:none;stroke:#ff0000;stroke-width:0.1;stroke-linejoin:round" d="M44.75450849718748 87.19999999999996 L 45.59999999999994 87.19999999999996 L 45.59999999999994 85.40901699437504"/>
<path style="fill:none;stroke:#ff0000;stroke-width:0.1;stroke-linejoin:round" d="M35.79098300562505 109.60000000000005 L 37.58196601125003 109.60000000000002 L 35.78042572472504 108.69922985673755"/><path style="fill:none;stroke:#ff0000;stroke-width:0.1;stroke-linejoin:round" d="M35.60154028652506 108.60978713763755 L 33.80000000000007 107.70901699437506 L 33.80000000000007 108.55450849718757"/><path style="fill:none;stroke:#ff0000;stroke-width:0.1;stroke-linejoin:round" d="M33.80000000000007 108.75450849718756 L 33.80000000000007 109.60000000000007 L 35.59098300562505 109.60000000000005"/>
<path style="fill:none;stroke:#ff0000;stroke-width:0.1;stroke-linejoin:round" d="M58.445410196624934 80.92721359549994 L 57.37082039324991 79.4944271909999 L 59.17236067977497 80.39519733426243"/><path style="fill:none;stroke:#ff0000;stroke-width:0.1;stroke-linejoin:round" d="M59.35124611797495 80.48464005336243 L 61.15278640450001 81.38541019662496 L 60.47639320224999 81.89270509831246"/><path style="fill:none;stroke:#ff0000;stroke-width:0.1;stroke-linejoin:round" d="M60.31639320224999 82.01270509831247 L 59.639999999999965 82.51999999999998 L 58.56541019662494 81.08721359549993"/>
<path style="fill:none;stroke:#ff0000;stroke-width:0.1;stroke-linejoin:round" d="M52.12721359550005 88.15458980337493 L 50.69442719100001 89.22917960674997 L 51.595197334262544 87.4276393202249"/><path style="fill:none;stroke:#ff0000;stroke-width:0.1;stroke-linejoin:round" d="M51.684640053362536 87.24875388202491 L 52.58541019662507 85.44721359549986 L 53.09270509831258 86.12360679774987"/><path style="fill:none;stroke:#ff0000;stroke-width:0.1;stroke-linejoin:round" d="M53.21270509831258 86.28360679774987 L 53.720000000000084 86.9599999999999 L 52.28721359550005 88.03458980337493"/>
<path style="fill:none;stroke:#ff0000;stroke-width:0.1;stroke-linejoin:round" d="M46.60000000000003 85.209016994375 L 46.60000000000003 83.41803398874994 L 47.50077014326257 85.21957427527501"/><path style="fill:none;stroke:#ff0000;stroke-width:0.1;stroke-linejoin:round" d="M47.59021286236256 85.39845971347499 L 48.4909830056251 87.20000000000006 L 47.64549150281257 87.20000000000006"/><path style="fill:none;stroke:#ff0000;stroke-width:0.1;stroke-linejoin:round" d="M47.445491502812565 87.20000000000006 L 46.60000000000003 87.20000000000006 L 46.60000000000003 85.409016994375"/>
<path style="fill:none;stroke:#ff0000;stroke-width:0.1;stroke-linejoin:round" d="M67.73570436517504 116.91055728090001 L 83.10557280900007 86.17082039324995 L 52.356393202250004 109.23270509831248"/><path style="fill:none;stroke:#ff0000;stroke-width:0.1;stroke-linejoin:round" d="M52.19639320225001 109.35270509831248 L 21.447213595499953 132.414589803375 L 36.77236067977499 140.07716334551256"/><path style="fill:none;stroke:#ff0000;stroke-width:0.1;stroke-linejoin:round" d="M36.951246117974975 140.16660606461252 L 52.27639320225002 147.82917960675005 L 67.64626164607505 117.08944271909999"/>
<path style="fill:none;stroke:#ff0000;stroke-width:0.1;stroke-linejoin:round" d="M59.35458980337509 46.472786404499985 L 60.42917960675016 47.90557280900009 L 58.62763932022502 47.00480266573753"/><path style="fill:none;stroke:#ff0000;stroke-width:0.1;stroke-linejoin:round" d="M58.44875388202504 46.91535994663754 L 56.6472135954999 46.01458980337497 L 57.32360679774996 45.50729490168743"/><path style="fill:none;stroke:#ff0000;stroke-width:0.1;stroke-linejoin:round" d="M57.48360679774996 45.387294901687426 L 58.160000000000025 44.87999999999989 L 59.23458980337509 46.31278640449999"/>
<path style="fill:none;stroke:#ff0000;stroke-width:0.1;stroke-linejoin:round" d="M66.00901699437496 7.199999999999999 L 64.21803398874991 7.199999999999999 L 66.01957427527496 6.299229856737471"/><path style="fill:none;stroke:#ff0000;stroke-width:0.1;stroke-linejoin:round" d="M66.19845971347495 6.209787137637479 L 68.0 5.309016994374949 L 68.0 6.154508497187475"/><path style="fill:none;stroke:#ff0000;stroke-width:0.1;stroke-linejoin:round" d="M68.0 6.354508497187474 L 68.0 7.199999999999999 L 66.20901699437495 7.199999999999999"/>
<path style="fill:none;stroke:#ff0000;stroke-width:0.1;stroke-linejoin:round" d="M61.64541019662493 14.472786404500058 L 60.57082039324988 15.905572809000121 L 62.37236067977497 15.004802665737579"/><path style="fill:none;stroke:#ff0000;stroke-width:0.1;stroke-linejoin:round" d="M62.551246117974955 14.915359946637587 L 64.35278640450005 14.014589803375044 L 63.67639320225001 13.507294901687521"/><path style="fill:none;stroke:#ff0000;stroke-width:0.1;stroke-linejoin:round" d="M63.516393202250015 13.38729490168752 L 62.83999999999998 12.879999999999995 L 61.765410196624934 14.312786404500057"/>
<path style="fill:none;stroke:#ff0000;stroke-width:0.1;stroke-linejoin:round" d="M69.20901699437493 69.0 L 54.61803398874986 69.0 L 69.21957427527494 76.30077014326254"/><path style="fill:none;stroke:#ff0000;stroke-width:0.1;stroke-linejoin:round" d="M69.39845971347492 76.39021286236253 L 84.0 83.69098300562507 L 84.0 76.44549150281253"/><path style="fill:none;stroke:#ff0000;stroke-width:0.1;stroke-linejoin:round" d="M84.0 76.24549150281254 L 84.0 69.0 L 69.40901699437492 69.0"/>
<path style="fill:none;stroke:#ff0000;stroke-width:0.1;stroke-linejoin:round" d="M32.88721359549992 83.83458980337505 L 31.45442719099985 84.90917960675009 L 33.43612150617746 84.54887154944507"/><path style="fill:none;stroke:#ff0000;stroke-width:0.1;stroke-linejoin:round" d="M33.632895488197434 84.51309446180508 L 35.61458980337504 84.15278640450008 L 35.10729490168752 83.47639320225004"/><path style="fill:none;stroke:#ff0000;stroke-width:0.1;stroke-linejoin:round" d="M34.98729490168751 83.31639320225004 L 34.47999999999999 82.64 L 33.04721359549992 83.71458980337505"/>
<path style="fill:none;stroke:#ff0000;stroke-width:0.1;stroke-linejoin:round" d="M68.0 133.209016994375 L 68.0 118.61803398874997 L 60.69922985673749 133.219574275275"/><path style="fill:none;stroke:#ff0000;stroke-width:0.1;stroke-linejoin:round" d="M60.6097871376375 133.39845971347498 L 53.30901699437498 148.0 L 60.55450849718749 148.0"/><path style="fill:none;stroke:#ff0000;stroke-width:0.1;stroke-linejoin:round" d="M60.754508497187494 148.0 L 68.0 148.0 L 68.0 133.40901699437498"/>
<path style="fill:none;stroke:#ff0000;stroke-width:0.1;stroke-linejoin:round" d="M37.632976794385065 70.69489786068004 L 43.28668737080015 69.66695048315003 L 37.107671842700064 67.86473762078752"/><path style="fill:none;stroke:#ff0000;stroke-width:0.1;stroke-linejoin:round" d="M36.91567184270007 67.80873762078751 L 30.73665631459999 66.006524758425 L 31.241685731455 68.78418655112753"/><path style="fill:none;stroke:#ff0000;stroke-width:0.1;stroke-linejoin:round" d="M31.277462819095 68.98096053314751 L 31.782492235950006 71.75862232585006 L 37.43620281236509 70.73067494832003"/>
<path style="fill:none;stroke:#ff0000;stroke-width:0.1;stroke-linejoin:round" d="M83.99999999999999 104.40901699437529 L 83.99999999999999 102.61803398875024 L 83.09922985673747 104.4195742752753"/><path style="fill:none;stroke:#ff0000;stroke-width:0.1;stroke-linejoin:round" d="M83.00978713763747 104.59845971347528 L 82.10901699437494 106.40000000000033 L 82.95450849718748 106.40000000000033"/><path style="fill:none;stroke:#ff0000;stroke-width:0.1;stroke-linejoin:round" d="M83.15450849718746 106.40000000000033 L 83.99999999999999 106.40000000000033 L 83.99999999999999 104.60901699437528"/>
<path style="fill:none;stroke:#ff0000;stroke-width:0.1;stroke-linejoin:round" d="M68.91055728090002 85.2642956348249 L 63.77082039324994 82.69442719099985 L 67.63270509831248 87.84360679774993"/><path style="fill:none;stroke:#ff0000;stroke-width:0.1;stroke-linejoin:round" d="M67.75270509831249 88.00360679774992 L 71.61458980337504 93.1527864045 L 72.87716334551257 90.62763932022497"/><path style="fill:none;stroke:#ff0000;stroke-width:0.1;stroke-linejoin:round" d="M72.96660606461256 90.44875388202499 L 74.2291796067501 87.92360679774994 L 69.0894427191 85.3537383539249"/>
<path style="fill:none;stroke:#ff0000;stroke-width:0.1;stroke-linejoin:round" d="M53.209016994374856 59.400000000000006 L 51.4180339887498 59.40000000000001 L 53.219574275274866 60.30077014326254"/><path style="fill:none;stroke:#ff0000;stroke-width:0.1;stroke-linejoin:round" d="M53.39845971347485 60.39021286236253 L 55.19999999999991 61.29098300562506 L 55.19999999999991 60.44549150281254"/><path style="fill:none;stroke:#ff0000;stroke-width:0.1;stroke-linejoin:round" d="M55.19999999999991 60.245491502812534 L 55.19999999999991 59.400000000000006 L 53.40901699437486 59.400000000000006"/>
<path style="fill:none;stroke:#ff0000;stroke-width:0.1;stroke-linejoin:round" d="M48.800000000000026 83.79098300562505 L 48.800000000000026 85.58196601125012 L 47.89922985673749 83.78042572472505"/><path style="fill:none;stroke:#ff0000;stroke-width:0.1;stroke-linejoin:round" d="M47.8097871376375 83.60154028652506 L 46.90901699437496 81.8 L 47.754508497187494 81.8"/><path style="fill:none;stroke:#ff0000;stroke-width:0.1;stroke-linejoin:round" d="M47.9545084971875 81.8 L 48.800000000000026 81.8 L 48.800000000000026 83.59098300562506"/>
<path style="fill:none;stroke:#ff0000;stroke-width:0.1;stroke-linejoin:round" d="M65.67278640450006 39.2454101966249 L 67.10557280900012 38.17082039324985 L 66.20480266573757 39.97236067977495"/><path style="fill:none;stroke:#ff0000;stroke-width:0.1;stroke-linejoin:round" d="M66.11535994663758 40.151246117974935 L 65.21458980337505 41.95278640450004 L 64.70729490168752 41.276393202250006"/><path style="fill:none;stroke:#ff0000;stroke-width:0.1;stroke-linejoin:round" d="M64.58729490168751 41.11639320225001 L 64.07999999999998 40.43999999999997 L 65.51278640450006 39.36541019662491"/>
<path style="fill:none;stroke:#ff0000;stroke-width:0.1;stroke-linejoin:round" d="M65.8 10.190983005625041 L 65.8 11.98196601125009 L 66.70077014326255 10.180425724725035"/><path style="fill:none;stroke:#ff0000;stroke-width:0.1;stroke-linejoin:round" d="M66.79021286236254 10.001540286525051 L 67.69098300562507 8.199999999999996 L 66.84549150281254 8.199999999999996"/><path style="fill:none;stroke:#ff0000;stroke-width:0.1;stroke-linejoin:round" d="M66.64549150281255 8.199999999999996 L 65.8 8.199999999999994 L 65.8 9.990983005625042"/>
<path style="fill:none;stroke:#ff0000;stroke-width:0.1;stroke-linejoin:round" d="M83.99999999999999 88.4090169943748 L 83.99999999999999 86.61803398874973 L 83.09922985673745 88.4195742752748"/><path style="fill:none;stroke:#ff0000;stroke-width:0.1;stroke-linejoin:round" d="M83.00978713763746 88.59845971347478 L 82.10901699437493 90.39999999999985 L 82.95450849718746 90.39999999999985"/><path style="fill:none;stroke:#ff0000;stroke-width:0.1;stroke-linejoin:round" d="M83.15450849718745 90.39999999999985 L 83.99999999999999 90.39999999999985 L 83.99999999999999 88.60901699437478"/>
<path style="fill:none;stroke:#ff0000;stroke-width:0.1;stroke-linejoin:round" d="M80.79999999999995 110.80901699437513 L 80.79999999999995 109.01803398875006 L 79.89922985673742 110.81957427527513"/><path style="fill:none;stroke:#ff0000;stroke-width:0.1;stroke-linejoin:round" d="M79.80978713763743 110.99845971347511 L 78.9090169943749 112.8000000000002 L 79.75450849718743 112.8000000000002"/><path style="fill:none;stroke:#ff0000;stroke-width:0.1;stroke-linejoin:round" d="M79.95450849718742 112.8000000000002 L 80.79999999999995 112.8000000000002 L 80.79999999999995 111.00901699437512"/>
<path style="fill:none;stroke:#ff0000;stroke-width:0.1;stroke-linejoin:round" d="M36.99999999999999 112.59098300562505 L 36.99999999999999 114.38196601125019 L 37.90077014326256 112.58042572472505"/><path style="fill:none;stroke:#ff0000;stroke-width:0.1;stroke-linejoin:round" d="M37.990212862362554 112.40154028652506 L 38.890983005625124 110.59999999999992 L 38.04549150281256 110.59999999999992"/><path style="fill:none;stroke:#ff0000;stroke-width:0.1;stroke-linejoin:round" d="M37.84549150281256 110.59999999999992 L 36.99999999999999 110.59999999999992 L 36.99999999999999 112.39098300562506"/>
<path style="fill:none;stroke:#ff0000;stroke-width:0.1;stroke-linejoin:round" d="M24.464295634824957 125.68944271909997 L 21.89442719099991 130.82917960675002 L 27.043606797749984 126.96729490168751"/><path style="fill:none;stroke:#ff0000;stroke-width:0.1;stroke-linejoin:round" d="M27.203606797749988 126.8472949016875 L 32.35278640450006 122.985410196625 L 29.827639320225018 121.72283665448747"/><path style="fill:none;stroke:#ff0000;stroke-width:0.1;stroke-linejoin:round" d="M29.648753882025034 121.63339393538747 L 27.123606797749996 120.37082039324994 L 24.55373835392495 125.51055728089999"/>
<path style="fill:none;stroke:#ff0000;stroke-width:0.1;stroke-linejoin:round" d="M69.35777087640005 84.36986844382501 L 64.21803398874997 81.79999999999998 L 70.65450849718755 81.79999999999998"/><path style="fill:none;stroke:#ff0000;stroke-width:0.1;stroke-linejoin:round" d="M70.85450849718754 81.79999999999998 L 77.29098300562512 81.79999999999998 L 76.02840946348762 84.32514708427502"/><path style="fill:none;stroke:#ff0000;stroke-width:0.1;stroke-linejoin:round" d="M75.93896674438763 84.504032522475 L 74.67639320225011 87.02917960675005 L 69.53665631460004 84.459311162925"/>
<path style="fill:none;stroke:#ff0000;stroke-width:0.1;stroke-linejoin:round" d="M20.369868443825034 131.64222912360003 L 5.0 162.3819660112501 L 5.0 123.94549150281253"/><path style="fill:none;stroke:#ff0000;stroke-width:0.1;stroke-linejoin:round" d="M5.0 123.74549150281254 L 5.0 85.30901699437494 L 20.325147084275038 92.97159053651247"/><path style="fill:none;stroke:#ff0000;stroke-width:0.1;stroke-linejoin:round" d="M20.504032522475022 93.06103325561246 L 35.82917960675006 100.72360679774998 L 20.459311162925026 131.46334368540005"/>
<path style="fill:none;stroke:#ff0000;stroke-width:0.1;stroke-linejoin:round" d="M83.9999999999999 109.39098300562478 L 83.9999999999999 111.18196601124956 L 83.0992298567375 109.38042572472477"/><path style="fill:none;stroke:#ff0000;stroke-width:0.1;stroke-linejoin:round" d="M83.0097871376375 109.20154028652479 L 82.10901699437511 107.39999999999999 L 82.9545084971875 107.39999999999999"/><path style="fill:none;stroke:#ff0000;stroke-width:0.1;stroke-linejoin:round" d="M83.15450849718749 107.39999999999999 L 83.9999999999999 107.39999999999999 L 83.9999999999999 109.19098300562479"/>
<path style="fill:none;stroke:#ff0000;stroke-width:0.1;stroke-linejoin:round" d="M36.872786404500026 80.84541019662505 L 38.305572809000076 79.77082039325003 L 37.40480266573754 81.5723606797751"/><path style="fill:none;stroke:#ff0000;stroke-width:0.1;stroke-linejoin:round" d="M37.31535994663755 81.75124611797509 L 36.414589803375016 83.55278640450014 L 35.9072949016875 82.8763932022501"/><path style="fill:none;stroke:#ff0000;stroke-width:0.1;stroke-linejoin:round" d="M35.787294901687495 82.7163932022501 L 35.27999999999998 82.04000000000008 L 36.71278640450003 80.96541019662506"/>
<path style="fill:none;stroke:#ff0000;stroke-width:0.1;stroke-linejoin:round" d="M48.53570436517501 75.31055728090007 L 51.105572809000016 70.17082039325004 L 45.95639320225 74.03270509831255"/><path style="fill:none;stroke:#ff0000;stroke-width:0.1;stroke-linejoin:round" d="M45.79639320225 74.15270509831255 L 40.647213595499984 78.01458980337506 L 43.172360679775 79.27716334551258"/><path style="fill:none;stroke:#ff0000;stroke-width:0.1;stroke-linejoin:round" d="M43.35124611797498 79.36660606461257 L 45.87639320225 80.62917960675009 L 48.446261646075016 75.48944271910005"/>
<path style="fill:none;stroke:#ff0000;stroke-width:0.1;stroke-linejoin:round" d="M72.46429563482495 59.310557280899964 L 69.89442719099995 54.170820393249954 L 75.04360679774994 58.03270509831245"/><path style="fill:none;stroke:#ff0000;stroke-width:0.1;stroke-linejoin:round" d="M75.20360679774994 58.15270509831245 L 80.35278640449995 62.014589803374946 L 77.82763932022493 63.277163345512456"/><path style="fill:none;stroke:#ff0000;stroke-width:0.1;stroke-linejoin:round" d="M77.64875388202495 63.36660606461245 L 75.12360679774994 64.62917960674996 L 72.55373835392494 59.48944271909995"/>
<path style="fill:none;stroke:#ff0000;stroke-width:0.1;stroke-linejoin:round" d="M52.36986844382503 83.64222912360012 L 49.79999999999999 88.7819660112502 L 49.79999999999999 82.3454915028126"/><path style="fill:none;stroke:#ff0000;stroke-width:0.1;stroke-linejoin:round" d="M49.79999999999999 82.14549150281262 L 49.79999999999999 75.70901699437502 L 52.32514708427503 76.97159053651255"/><path style="fill:none;stroke:#ff0000;stroke-width:0.1;stroke-linejoin:round" d="M52.504032522475015 77.06103325561254 L 55.029179606750056 78.32360679775006 L 52.45931116292502 83.46334368540013"/>
<path style="fill:none;stroke:#ff0000;stroke-width:0.1;stroke-linejoin:round" d="M55.28944271909998 29.335704365175044 L 60.42917960675007 31.90557280900008 L 56.56729490168752 26.756393202250013"/><path style="fill:none;stroke:#ff0000;stroke-width:0.1;stroke-linejoin:round" d="M56.44729490168751 26.596393202250017 L 52.58541019662496 21.44721359549995 L 51.32283665448743 23.97236067977499"/><path style="fill:none;stroke:#ff0000;stroke-width:0.1;stroke-linejoin:round" d="M51.23339393538744 24.151246117974974 L 49.970820393249916 26.676393202250015 L 55.1105572809 29.24626164607505"/>
<path style="fill:none;stroke:#ff0000;stroke-width:0.1;stroke-linejoin:round" d="M84.00000000000003 93.39098300562497 L 84.00000000000003 95.1819660112502 L 83.09922985673742 93.38042572472497"/><path style="fill:none;stroke:#ff0000;stroke-width:0.1;stroke-linejoin:round" d="M83.00978713763743 93.20154028652499 L 82.10901699437483 91.39999999999978 L 82.95450849718743 91.39999999999978"/><path style="fill:none;stroke:#ff0000;stroke-width:0.1;stroke-linejoin:round" d="M83.15450849718742 91.39999999999978 L 84.00000000000003 91.39999999999978 L 84.00000000000003 93.19098300562499"/>
<path style="fill:none;stroke:#ff0000;stroke-width:0.1;stroke-linejoin:round" d="M81.430131556175 155.75777087639997 L 84.0 150.61803398874997 L 84.0 157.05450849718747"/><path style="fill:none;stroke:#ff0000;stroke-width:0.1;stroke-linejoin:round" d="M84.0 157.25450849718746 L 84.0 163.69098300562496 L 81.474852915725 162.42840946348744"/><path style="fill:none;stroke:#ff0000;stroke-width:0.1;stroke-linejoin:round" d="M81.29596747752501 162.33896674438748 L 78.77082039325 161.07639320224996 L 81.340688837075 155.93665631459996"/>
<path style="fill:none;stroke:#ff0000;stroke-width:0.1;stroke-linejoin:round" d="M27.310557280900003 8.46429563482495 L 22.170820393249933 5.894427190999915 L 26.032705098312483 11.043606797749979"/><path style="fill:none;stroke:#ff0000;stroke-width:0.1;stroke-linejoin:round" d="M26.15270509831248 11.203606797749979 L 30.01458980337503 16.35278640450004 L 31.277163345512548 13.827639320225"/><path style="fill:none;stroke:#ff0000;stroke-width:0.1;stroke-linejoin:round" d="M31.36660606461254 13.648753882025016 L 32.62917960675006 11.123606797749977 L 27.489442719099987 8.553738353924942"/>
<path style="fill:none;stroke:#ff0000;stroke-width:0.1;stroke-linejoin:round" d="M55.24541019662493 17.67278640450006 L 54.17082039324988 19.105572809000122 L 55.97236067977497 18.20480266573758"/><path style="fill:none;stroke:#ff0000;stroke-width:0.1;stroke-linejoin:round" d="M56.15124611797496 18.11535994663759 L 57.952786404500046 17.21458980337505 L 57.27639320225001 16.707294901687522"/><path style="fill:none;stroke:#ff0000;stroke-width:0.1;stroke-linejoin:round" d="M57.116393202250016 16.587294901687525 L 56.43999999999998 16.080000000000002 L 55.365410196624936 17.512786404500062"/>
<path style="fill:none;stroke:#ff0000;stroke-width:0.1;stroke-linejoin:round" d="M75.66429563482494 129.71055728089993 L 73.09442719099992 124.57082039324989 L 78.24360679774999 128.43270509831243"/><path style="fill:none;stroke:#ff0000;stroke-width:0.1;stroke-linejoin:round" d="M78.40360679774999 128.55270509831243 L 83.55278640450005 132.41458980337498 L 81.027639320225 133.6771633455125"/><path style="fill:none;stroke:#ff0000;stroke-width:0.1;stroke-linejoin:round" d="M80.84875388202502 133.76660606461246 L 78.32360679774996 135.02917960674998 L 75.75373835392493 129.88944271909992"/>
<path style="fill:none;stroke:#ff0000;stroke-width:0.1;stroke-linejoin:round" d="M74.19098300562518 80.8000000000001 L 75.98196601125039 80.8000000000001 L 74.18042572472518 79.89922985673748"/><path style="fill:none;stroke:#ff0000;stroke-width:0.1;stroke-linejoin:round" d="M74.0015402865252 79.80978713763749 L 72.19999999999999 78.90901699437488 L 72.19999999999999 79.75450849718749"/><path style="fill:none;stroke:#ff0000;stroke-width:0.1;stroke-linejoin:round" d="M72.19999999999999 79.95450849718748 L 72.2 80.8000000000001 L 73.9909830056252 80.8000000000001"/>
<path style="fill:none;stroke:#ff0000;stroke-width:0.1;stroke-linejoin:round" d="M39.289442719099995 109.33570436517506 L 44.429179606750075 111.9055728090001 L 40.56729490168752 106.75639320225004"/><path style="fill:none;stroke:#ff0000;stroke-width:0.1;stroke-linejoin:round" d="M40.44729490168751 106.59639320225004 L 36.58541019662496 101.44721359549997 L 35.32283665448744 103.97236067977502"/><path style="fill:none;stroke:#ff0000;stroke-width:0.1;stroke-linejoin:round" d="M35.23339393538745 104.151246117975 L 33.97082039324992 106.67639320225004 L 39.11055728090001 109.24626164607507"/>
<path style="fill:none;stroke:#ff0000;stroke-width:0.1;stroke-linejoin:round" d="M51.73570436517503 52.910557280900015 L 54.305572809000076 47.77082039324992 L 49.15639320225 51.632705098312485"/><path style="fill:none;stroke:#ff0000;stroke-width:0.1;stroke-linejoin:round" d="M48.996393202250005 51.75270509831249 L 43.84721359549992 55.61458980337505 L 46.37236067977497 56.87716334551257"/><path style="fill:none;stroke:#ff0000;stroke-width:0.1;stroke-linejoin:round" d="M46.551246117974955 56.96660606461256 L 49.076393202249996 58.229179606750094 L 51.64626164607504 53.0894427191"/>
<path style="fill:none;stroke:#ff0000;stroke-width:0.1;stroke-linejoin:round" d="M71.20000000000013 114.00901699437507 L 71.20000000000013 112.21803398875001 L 70.2992298567376 114.01957427527508"/><path style="fill:none;stroke:#ff0000;stroke-width:0.1;stroke-linejoin:round" d="M70.2097871376376 114.19845971347506 L 69.30901699437507 116.00000000000013 L 70.1545084971876 116.00000000000013"/><path style="fill:none;stroke:#ff0000;stroke-width:0.1;stroke-linejoin:round" d="M70.3545084971876 116.00000000000013 L 71.20000000000013 116.00000000000013 L 71.20000000000013 114.20901699437506"/>
<path style="fill:none;stroke:#ff0000;stroke-width:0.1;stroke-linejoin:round" d="M84.0 51.790983005625044 L 84.0 66.38196601125009 L 76.69922985673747 51.780425724725035"/><path style="fill:none;stroke:#ff0000;stroke-width:0.1;stroke-linejoin:round" d="M76.60978713763748 51.60154028652505 L 69.30901699437496 37.0 L 76.55450849718748 37.0"/><path style="fill:none;stroke:#ff0000;stroke-width:0.1;stroke-linejoin:round" d="M76.75450849718747 37.0 L 84.0 37.0 L 84.0 51.59098300562504"/>
<path style="fill:none;stroke:#ff0000;stroke-width:0.1;stroke-linejoin:round" d="M30.230131556174967 114.15777087639997 L 32.80000000000001 109.01803398874988 L 32.80000000000001 115.45450849718748"/><path style="fill:none;stroke:#ff0000;stroke-width:0.1;stroke-linejoin:round" d="M32.80000000000001 115.65450849718746 L 32.80000000000001 122.09098300562506 L 30.274852915724964 120.82840946348755"/><path style="fill:none;stroke:#ff0000;stroke-width:0.1;stroke-linejoin:round" d="M30.09596747752498 120.73896674438755 L 27.57082039324993 119.47639320225004 L 30.140688837074975 114.33665631459995"/>
<path style="fill:none;stroke:#ff0000;stroke-width:0.1;stroke-linejoin:round" d="M37.748137767415 63.40123222922005 L 32.094427190999916 64.42917960675007 L 37.24360679774999 60.56729490168752"/><path style="fill:none;stroke:#ff0000;stroke-width:0.1;stroke-linejoin:round" d="M37.40360679774999 60.44729490168751 L 42.55278640450006 56.585410196624956 L 43.05781582135507 59.3630719893275"/><path style="fill:none;stroke:#ff0000;stroke-width:0.1;stroke-linejoin:round" d="M43.09359290899507 59.55984597134748 L 43.59862232585007 62.337507764050024 L 37.94491174943498 63.36545514158005"/>
<path style="fill:none;stroke:#ff0000;stroke-width:0.1;stroke-linejoin:round" d="M75.60901699437505 115.99999999999983 L 73.81803398875027 115.99999999999983 L 75.61957427527506 115.09922985673744"/><path style="fill:none;stroke:#ff0000;stroke-width:0.1;stroke-linejoin:round" d="M75.79845971347504 115.00978713763745 L 77.59999999999984 114.10901699437505 L 77.59999999999984 114.95450849718745"/><path style="fill:none;stroke:#ff0000;stroke-width:0.1;stroke-linejoin:round" d="M77.59999999999984 115.15450849718744 L 77.59999999999984 115.99999999999983 L 75.80901699437504 115.99999999999983"/>
<path style="fill:none;stroke:#ff0000;stroke-width:0.1;stroke-linejoin:round" d="M78.51278640450006 88.36541019662496 L 79.94557280900013 87.29082039324992 L 77.96387849382253 87.65112845055495"/><path style="fill:none;stroke:#ff0000;stroke-width:0.1;stroke-linejoin:round" d="M77.76710451180256 87.68690553819494 L 75.78541019662497 88.04721359549995 L 76.29270509831248 88.72360679774998"/><path style="fill:none;stroke:#ff0000;stroke-width:0.1;stroke-linejoin:round" d="M76.41270509831249 88.88360679774998 L 76.92 89.56 L 78.35278640450007 88.48541019662497"/>
<path style="fill:none;stroke:#ff0000;stroke-width:0.1;stroke-linejoin:round" d="M58.76986844382506 54.842229123600035 L 56.20000000000002 59.98196601125012 L 56.20000000000002 53.545491502812524"/><path style="fill:none;stroke:#ff0000;stroke-width:0.1;stroke-linejoin:round" d="M56.20000000000002 53.34549150281252 L 56.20000000000002 46.90901699437492 L 58.725147084275065 48.17159053651245"/><path style="fill:none;stroke:#ff0000;stroke-width:0.1;stroke-linejoin:round" d="M58.90403252247505 48.26103325561244 L 61.4291796067501 49.52360679774996 L 58.85931116292505 54.66334368540005"/>
<path style="fill:none;stroke:#ff0000;stroke-width:0.1;stroke-linejoin:round" d="M35.999999999999986 88.40901699437501 L 35.999999999999986 86.61803398874987 L 35.09922985673742 88.41957427527501"/><path style="fill:none;stroke:#ff0000;stroke-width:0.1;stroke-linejoin:round" d="M35.00978713763743 88.598459713475 L 34.10901699437486 90.40000000000012 L 34.954508497187426 90.40000000000012"/><path style="fill:none;stroke:#ff0000;stroke-width:0.1;stroke-linejoin:round" d="M35.15450849718743 90.40000000000012 L 35.999999999999986 90.40000000000012 L 35.999999999999986 88.609016994375"/>
<path style="fill:none;stroke:#ff0000;stroke-width:0.1;stroke-linejoin:round" d="M59.757770876399974 151.56986844382502 L 54.61803398874997 149.0 L 61.054508497187456 149.0"/><path style="fill:none;stroke:#ff0000;stroke-width:0.1;stroke-linejoin:round" d="M61.25450849718746 149.0 L 67.69098300562494 149.0 L 66.42840946348745 151.525147084275"/><path style="fill:none;stroke:#ff0000;stroke-width:0.1;stroke-linejoin:round" d="M66.33896674438746 151.704032522475 L 65.07639320224996 154.22917960675 L 59.93665631459996 151.65931116292498"/>
<path style="fill:none;stroke:#ff0000;stroke-width:0.1;stroke-linejoin:round" d="M33.799999999999926 118.99098300562513 L 33.799999999999926 120.78196601125019 L 34.70077014326246 118.98042572472512"/><path style="fill:none;stroke:#ff0000;stroke-width:0.1;stroke-linejoin:round" d="M34.79021286236245 118.80154028652514 L 35.69098300562498 117.00000000000007 L 34.84549150281246 117.00000000000007"/><path style="fill:none;stroke:#ff0000;stroke-width:0.1;stroke-linejoin:round" d="M34.645491502812455 117.00000000000007 L 33.799999999999926 117.00000000000007 L 33.799999999999926 118.79098300562514"/>
<path style="fill:none;stroke:#ff0000;stroke-width:0.1;stroke-linejoin:round" d="M81.43013155617494 141.2422291236001 L 84.0 146.38196601125023 L 84.0 139.9454915028126"/><path style="fill:none;stroke:#ff0000;stroke-width:0.1;stroke-linejoin:round" d="M84.0 139.7454915028126 L 84.0 133.30901699437496 L 81.47485291572494 134.5715905365125"/><path style="fill:none;stroke:#ff0000;stroke-width:0.1;stroke-linejoin:round" d="M81.29596747752495 134.66103325561247 L 78.77082039324989 135.92360679775 L 81.34068883707495 141.06334368540013"/>
<path style="fill:none;stroke:#ff0000;stroke-width:0.1;stroke-linejoin:round" d="M58.03278640450002 103.72541019662498 L 69.70557280900005 94.97082039324995 L 53.6438784938225 97.89112845055496"/><path style="fill:none;stroke:#ff0000;stroke-width:0.1;stroke-linejoin:round" d="M53.44710451180252 97.92690553819494 L 37.385410196624974 100.84721359549997 L 41.732705098312486 106.64360679775"/><path style="fill:none;stroke:#ff0000;stroke-width:0.1;stroke-linejoin:round" d="M41.85270509831249 106.80360679774999 L 46.2 112.60000000000001 L 57.872786404500026 103.84541019662498"/>
<path style="fill:none;stroke:#ff0000;stroke-width:0.1;stroke-linejoin:round" d="M78.47278640450006 109.64541019662482 L 79.9055728090001 108.5708203932498 L 79.00480266573757 110.37236067977487"/><path style="fill:none;stroke:#ff0000;stroke-width:0.1;stroke-linejoin:round" d="M78.91535994663758 110.55124611797486 L 78.01458980337505 112.35278640449992 L 77.50729490168753 111.67639320224988"/><path style="fill:none;stroke:#ff0000;stroke-width:0.1;stroke-linejoin:round" d="M77.38729490168753 111.51639320224989 L 76.88000000000001 110.83999999999986 L 78.31278640450006 109.76541019662483"/>
<path style="fill:none;stroke:#ff0000;stroke-width:0.1;stroke-linejoin:round" d="M78.32721359549988 85.7545898033751 L 76.89442719099983 86.82917960675013 L 78.87612150617741 86.46887154944511"/><path style="fill:none;stroke:#ff0000;stroke-width:0.1;stroke-linejoin:round" d="M79.07289548819739 86.43309446180513 L 81.05458980337498 86.07278640450009 L 80.54729490168745 85.39639320225007"/><path style="fill:none;stroke:#ff0000;stroke-width:0.1;stroke-linejoin:round" d="M80.42729490168745 85.23639320225007 L 79.91999999999993 84.56000000000004 L 78.48721359549988 85.63458980337509"/>
<path style="fill:none;stroke:#ff0000;stroke-width:0.1;stroke-linejoin:round" d="M61.87278640450005 44.84541019662497 L 63.305572809000104 43.770820393249934 L 61.32387849382252 44.13112845055495"/><path style="fill:none;stroke:#ff0000;stroke-width:0.1;stroke-linejoin:round" d="M61.12710451180254 44.166905538194946 L 59.145410196624965 44.527213595499965 L 59.652705098312474 45.203606797749984"/><path style="fill:none;stroke:#ff0000;stroke-width:0.1;stroke-linejoin:round" d="M59.77270509831248 45.36360679774998 L 60.27999999999999 46.040000000000006 L 61.71278640450005 44.96541019662497"/>
<path style="fill:none;stroke:#ff0000;stroke-width:0.1;stroke-linejoin:round" d="M46.809016994374915 88.20000000000002 L 45.01803398874992 88.20000000000002 L 46.819574275274924 89.10077014326252"/><path style="fill:none;stroke:#ff0000;stroke-width:0.1;stroke-linejoin:round" d="M46.99845971347491 89.19021286236251 L 48.79999999999991 90.090983005625 L 48.79999999999991 89.24549150281251"/><path style="fill:none;stroke:#ff0000;stroke-width:0.1;stroke-linejoin:round" d="M48.79999999999991 89.04549150281252 L 48.79999999999991 88.20000000000002 L 47.00901699437492 88.20000000000002"/>
<path style="fill:none;stroke:#ff0000;stroke-width:0.1;stroke-linejoin:round" d="M42.190983005625114 80.8 L 43.981966011250165 80.8 L 42.180425724725104 79.89922985673748"/><path style="fill:none;stroke:#ff0000;stroke-width:0.1;stroke-linejoin:round" d="M42.00154028652512 79.80978713763749 L 40.20000000000006 78.90901699437495 L 40.20000000000006 79.75450849718749"/><path style="fill:none;stroke:#ff0000;stroke-width:0.1;stroke-linejoin:round" d="M40.20000000000006 79.95450849718748 L 40.20000000000006 80.8 L 41.99098300562511 80.8"/>
<path style="fill:none;stroke:#ff0000;stroke-width:0.1;stroke-linejoin:round" d="M84.0 21.209016994374956 L 84.0 6.618033988749914 L 76.69922985673747 21.219574275274965"/><path style="fill:none;stroke:#ff0000;stroke-width:0.1;stroke-linejoin:round" d="M76.60978713763748 21.39845971347495 L 69.30901699437496 36.0 L 76.55450849718748 36.0"/><path style="fill:none;stroke:#ff0000;stroke-width:0.1;stroke-linejoin:round" d="M76.75450849718747 36.0 L 84.0 36.0 L 84.0 21.40901699437496"/>
<path style="fill:none;stroke:#ff0000;stroke-width:0.1;stroke-linejoin:round" d="M64.8 10.190983005625045 L 64.8 11.981966011250094 L 63.89922985673747 10.180425724725037"/><path style="fill:none;stroke:#ff0000;stroke-width:0.1;stroke-linejoin:round" d="M63.80978713763748 10.001540286525053 L 62.90901699437495 8.199999999999996 L 63.75450849718747 8.199999999999996"/><path style="fill:none;stroke:#ff0000;stroke-width:0.1;stroke-linejoin:round" d="M63.954508497187476 8.199999999999996 L 64.8 8.199999999999996 L 64.8 9.990983005625045"/>
<path style="fill:none;stroke:#ff0000;stroke-width:0.1;stroke-linejoin:round" d="M65.43013155617497 27.757770876399988 L 68.0 22.618033988749925 L 68.0 29.05450849718749"/><path style="fill:none;stroke:#ff0000;stroke-width:0.1;stroke-linejoin:round" d="M68.0 29.254508497187494 L 68.0 35.690983005625064 L 65.47485291572497 34.42840946348755"/><path style="fill:none;stroke:#ff0000;stroke-width:0.1;stroke-linejoin:round" d="M65.29596747752498 34.338966744387555 L 62.770820393249956 33.07639320225004 L 65.34068883707498 27.936656314599972"/>
<path style="fill:none;stroke:#ff0000;stroke-width:0.1;stroke-linejoin:round" d="M55.32721359550001 81.75458980337487 L 53.89442719100009 82.82917960674982 L 54.79519733426254 81.0276393202249"/><path style="fill:none;stroke:#ff0000;stroke-width:0.1;stroke-linejoin:round" d="M54.88464005336253 80.84875388202492 L 55.78541019662499 79.04721359550001 L 56.29270509831246 79.72360679774997"/><path style="fill:none;stroke:#ff0000;stroke-width:0.1;stroke-linejoin:round" d="M56.412705098312465 79.88360679774996 L 56.91999999999994 80.55999999999992 L 55.48721359550001 81.63458980337487"/>
<path style="fill:none;stroke:#ff0000;stroke-width:0.1;stroke-linejoin:round" d="M71.56986844382503 59.75777087639996 L 69.0 54.618033988749936 L 69.0 61.05450849718746"/><path style="fill:none;stroke:#ff0000;stroke-width:0.1;stroke-linejoin:round" d="M69.0 61.254508497187466 L 69.0 67.69098300562499 L 71.52514708427503 66.42840946348748"/><path style="fill:none;stroke:#ff0000;stroke-width:0.1;stroke-linejoin:round" d="M71.70403252247502 66.33896674438749 L 74.22917960675004 65.07639320224997 L 71.65931116292502 59.936656314599944"/>
<path style="fill:none;stroke:#ff0000;stroke-width:0.1;stroke-linejoin:round" d="M80.5909830056251 116.00000000000013 L 82.38196601125017 116.00000000000013 L 80.5804257247251 115.09922985673758"/><path style="fill:none;stroke:#ff0000;stroke-width:0.1;stroke-linejoin:round" d="M80.40154028652512 115.00978713763759 L 78.60000000000007 114.10901699437505 L 78.60000000000007 114.95450849718759"/><path style="fill:none;stroke:#ff0000;stroke-width:0.1;stroke-linejoin:round" d="M78.60000000000007 115.15450849718758 L 78.60000000000007 116.00000000000013 L 80.39098300562512 116.00000000000013"/>
<path style="fill:none;stroke:#ff0000;stroke-width:0.1;stroke-linejoin:round" d="M75.66429563482502 103.28944271909994 L 73.09442719099998 108.42917960675005 L 78.24360679775006 104.56729490168748"/><path style="fill:none;stroke:#ff0000;stroke-width:0.1;stroke-linejoin:round" d="M78.40360679775006 104.44729490168747 L 83.55278640450014 100.58541019662489 L 81.02763932022509 99.32283665448736"/><path style="fill:none;stroke:#ff0000;stroke-width:0.1;stroke-linejoin:round" d="M80.84875388202511 99.23339393538737 L 78.32360679775005 97.97082039324984 L 75.75373835392502 103.11055728089995"/>
<path style="fill:none;stroke:#ff0000;stroke-width:0.1;stroke-linejoin:round" d="M50.16721359549997 90.87458980337502 L 38.49442719099994 99.62917960675006 L 54.556121506177504 96.70887154944504"/><path style="fill:none;stroke:#ff0000;stroke-width:0.1;stroke-linejoin:round" d="M54.75289548819748 96.67309446180505 L 70.81458980337504 93.75278640450003 L 66.46729490168752 87.95639320225"/><path style="fill:none;stroke:#ff0000;stroke-width:0.1;stroke-linejoin:round" d="M66.34729490168752 87.79639320225 L 62.00000000000001 81.99999999999997 L 50.32721359549997 90.75458980337501"/>
<path style="fill:none;stroke:#ff0000;stroke-width:0.1;stroke-linejoin:round" d="M59.310557280899964 72.46429563482495 L 54.170820393249954 69.89442719099995 L 58.03270509831245 75.04360679774994"/><path style="fill:none;stroke:#ff0000;stroke-width:0.1;stroke-linejoin:round" d="M58.15270509831245 75.20360679774994 L 62.014589803374946 80.35278640449995 L 63.277163345512456 77.82763932022493"/><path style="fill:none;stroke:#ff0000;stroke-width:0.1;stroke-linejoin:round" d="M63.36660606461245 77.64875388202495 L 64.62917960674996 75.12360679774994 L 59.48944271909995 72.55373835392494"/>
<path style="fill:none;stroke:#ff0000;stroke-width:0.1;stroke-linejoin:round" d="M59.75777087639996 23.569868443825037 L 54.61803398874989 21.0 L 61.05450849718748 21.0"/><path style="fill:none;stroke:#ff0000;stroke-width:0.1;stroke-linejoin:round" d="M61.25450849718748 21.0 L 67.69098300562506 21.0 L 66.42840946348754 23.52514708427504"/><path style="fill:none;stroke:#ff0000;stroke-width:0.1;stroke-linejoin:round" d="M66.33896674438755 23.704032522475025 L 65.07639320225002 26.22917960675007 L 59.936656314599944 23.65931116292503"/>
<path style="fill:none;stroke:#ff0000;stroke-width:0.1;stroke-linejoin:round" d="M40.199999999999996 90.19098300562504 L 40.199999999999996 91.9819660112501 L 41.10077014326252 90.18042572472504"/><path style="fill:none;stroke:#ff0000;stroke-width:0.1;stroke-linejoin:round" d="M41.190212862362515 90.00154028652506 L 42.09098300562505 88.2 L 41.24549150281252 88.2"/><path style="fill:none;stroke:#ff0000;stroke-width:0.1;stroke-linejoin:round" d="M41.04549150281252 88.2 L 40.199999999999996 88.2 L 40.199999999999996 89.99098300562505"/>
<path style="fill:none;stroke:#ff0000;stroke-width:0.1;stroke-linejoin:round" d="M77.24222912360018 119.56986844382506 L 82.38196601125028 117.0 L 75.94549150281264 117.0"/><path style="fill:none;stroke:#ff0000;stroke-width:0.1;stroke-linejoin:round" d="M75.74549150281265 117.0 L 69.30901699437503 117.0 L 70.57159053651257 119.52514708427506"/><path style="fill:none;stroke:#ff0000;stroke-width:0.1;stroke-linejoin:round" d="M70.66103325561257 119.70403252247505 L 71.9236067977501 122.22917960675012 L 77.0633436854002 119.65931116292505"/>
<path style="fill:none;stroke:#ff0000;stroke-width:0.1;stroke-linejoin:round" d="M62.4727864045 45.645410196624944 L 63.9055728090001 44.57082039324987 L 63.00480266573753 46.37236067977501"/><path style="fill:none;stroke:#ff0000;stroke-width:0.1;stroke-linejoin:round" d="M62.91535994663754 46.55124611797499 L 62.01458980337496 48.35278640450013 L 61.50729490168743 47.676393202250075"/><path style="fill:none;stroke:#ff0000;stroke-width:0.1;stroke-linejoin:round" d="M61.387294901687426 47.51639320225008 L 60.879999999999896 46.840000000000025 L 62.3127864045 45.76541019662495"/>
<path style="fill:none;stroke:#ff0000;stroke-width:0.1;stroke-linejoin:round" d="M48.800000000000054 78.80901699437493 L 48.800000000000054 77.0180339887498 L 47.89922985673749 78.81957427527493"/><path style="fill:none;stroke:#ff0000;stroke-width:0.1;stroke-linejoin:round" d="M47.8097871376375 78.99845971347492 L 46.90901699437493 80.80000000000005 L 47.754508497187494 80.80000000000005"/><path style="fill:none;stroke:#ff0000;stroke-width:0.1;stroke-linejoin:round" d="M47.9545084971875 80.80000000000005 L 48.800000000000054 80.80000000000005 L 48.800000000000054 79.00901699437492"/>
<path style="fill:none;stroke:#ff0000;stroke-width:0.1;stroke-linejoin:round" d="M33.43013155617496 11.757770876399963 L 36.0 6.618033988749897 L 36.0 13.054508497187472"/><path style="fill:none;stroke:#ff0000;stroke-width:0.1;stroke-linejoin:round" d="M36.0 13.254508497187471 L 36.0 19.690983005625046 L 33.47485291572496 18.428409463487526"/><path style="fill:none;stroke:#ff0000;stroke-width:0.1;stroke-linejoin:round" d="M33.295967477524975 18.338966744387534 L 30.770820393249934 17.076393202250014 L 33.34068883707497 11.936656314599947"/>
<path style="fill:none;stroke:#ff0000;stroke-width:0.1;stroke-linejoin:round" d="M81.43013155617491 125.24222912360011 L 84.0 130.38196601125028 L 84.0 123.94549150281256"/><path style="fill:none;stroke:#ff0000;stroke-width:0.1;stroke-linejoin:round" d="M84.0 123.74549150281257 L 84.0 117.30901699437486 L 81.47485291572491 118.5715905365124"/><path style="fill:none;stroke:#ff0000;stroke-width:0.1;stroke-linejoin:round" d="M81.29596747752493 118.6610332556124 L 78.77082039324982 119.92360679774994 L 81.34068883707492 125.06334368540013"/>
<path style="fill:none;stroke:#ff0000;stroke-width:0.1;stroke-linejoin:round" d="M71.56986844382503 43.75777087639999 L 69.0 38.618033988749936 L 69.0 45.05450849718749"/><path style="fill:none;stroke:#ff0000;stroke-width:0.1;stroke-linejoin:round" d="M69.0 45.254508497187494 L 69.0 51.69098300562506 L 71.52514708427503 50.42840946348754"/><path style="fill:none;stroke:#ff0000;stroke-width:0.1;stroke-linejoin:round" d="M71.70403252247502 50.33896674438755 L 74.22917960675005 49.076393202250024 L 71.65931116292502 43.93665631459997"/>
<path style="fill:none;stroke:#ff0000;stroke-width:0.1;stroke-linejoin:round" d="M82.00901699437507 97.80000000000007 L 80.21803398875015 97.80000000000007 L 82.01957427527508 98.70077014326253"/><path style="fill:none;stroke:#ff0000;stroke-width:0.1;stroke-linejoin:round" d="M82.19845971347506 98.79021286236252 L 83.99999999999999 99.69098300562499 L 83.99999999999999 98.84549150281252"/><path style="fill:none;stroke:#ff0000;stroke-width:0.1;stroke-linejoin:round" d="M83.99999999999999 98.64549150281253 L 83.99999999999999 97.80000000000007 L 82.20901699437506 97.80000000000007"/>
<path style="fill:none;stroke:#ff0000;stroke-width:0.1;stroke-linejoin:round" d="M39.199999999999996 86.99098300562505 L 39.199999999999996 88.78196601125005 L 38.2992298567375 86.98042572472505"/><path style="fill:none;stroke:#ff0000;stroke-width:0.1;stroke-linejoin:round" d="M38.209787137637505 86.80154028652507 L 37.309016994375014 85.00000000000007 L 38.1545084971875 85.00000000000007"/><path style="fill:none;stroke:#ff0000;stroke-width:0.1;stroke-linejoin:round" d="M38.3545084971875 85.00000000000007 L 39.199999999999996 85.00000000000007 L 39.199999999999996 86.79098300562507"/>
<path style="fill:none;stroke:#ff0000;stroke-width:0.1;stroke-linejoin:round" d="M77.33570436517503 55.28944271909997 L 79.90557280900005 60.429179606750026 L 74.75639320225001 56.5672949016875"/><path style="fill:none;stroke:#ff0000;stroke-width:0.1;stroke-linejoin:round" d="M74.59639320225001 56.44729490168749 L 69.44721359549997 52.58541019662496 L 71.972360679775 51.322836654487446"/><path style="fill:none;stroke:#ff0000;stroke-width:0.1;stroke-linejoin:round" d="M72.15124611797498 51.233393935387454 L 74.67639320225001 49.97082039324994 L 77.24626164607504 55.11055728089999"/>
<path style="fill:none;stroke:#ff0000;stroke-width:0.1;stroke-linejoin:round" d="M82.00901699437523 113.80000000000014 L 80.21803398875018 113.80000000000014 L 82.01957427527523 114.70077014326266"/><path style="fill:none;stroke:#ff0000;stroke-width:0.1;stroke-linejoin:round" d="M82.19845971347522 114.79021286236265 L 84.00000000000027 115.69098300562518 L 84.00000000000027 114.84549150281265"/><path style="fill:none;stroke:#ff0000;stroke-width:0.1;stroke-linejoin:round" d="M84.00000000000027 114.64549150281266 L 84.00000000000027 113.80000000000014 L 82.20901699437522 113.80000000000014"/>
<path style="fill:none;stroke:#ff0000;stroke-width:0.1;stroke-linejoin:round" d="M20.369868443825034 51.64222912360003 L 5.0 82.3819660112501 L 5.0 43.94549150281252"/><path style="fill:none;stroke:#ff0000;stroke-width:0.1;stroke-linejoin:round" d="M5.0 43.74549150281252 L 5.0 5.3090169943749475 L 20.325147084275038 12.971590536512464"/><path style="fill:none;stroke:#ff0000;stroke-width:0.1;stroke-linejoin:round" d="M20.504032522475022 13.061033255612456 L 35.82917960675006 20.723606797749973 L 20.459311162925026 51.46334368540005"/>
<path style="fill:none;stroke:#ff0000;stroke-width:0.1;stroke-linejoin:round" d="M33.710557280900005 91.66429563482494 L 28.57082039324992 89.09442719099988 L 32.432705098312475 94.24360679774996"/><path style="fill:none;stroke:#ff0000;stroke-width:0.1;stroke-linejoin:round" d="M32.55270509831248 94.40360679774996 L 36.41458980337503 99.55278640450005 L 37.677163345512554 97.027639320225"/><path style="fill:none;stroke:#ff0000;stroke-width:0.1;stroke-linejoin:round" d="M37.766606064612546 96.84875388202502 L 39.02917960675007 94.32360679774997 L 33.88944271909999 91.75373835392493"/>
<path style="fill:none;stroke:#ff0000;stroke-width:0.1;stroke-linejoin:round" d="M52.045410196624914 61.72721359549994 L 50.97082039324988 60.29442719099989 L 52.77236067977495 61.19519733426242"/><path style="fill:none;stroke:#ff0000;stroke-width:0.1;stroke-linejoin:round" d="M52.95124611797493 61.28464005336241 L 54.75278640450001 62.18541019662493 L 54.07639320224998 62.69270509831246"/><path style="fill:none;stroke:#ff0000;stroke-width:0.1;stroke-linejoin:round" d="M53.916393202249985 62.81270509831246 L 53.23999999999996 63.319999999999986 L 52.16541019662492 61.88721359549994"/>
<path style="fill:none;stroke:#ff0000;stroke-width:0.1;stroke-linejoin:round" d="M75.31055728090007 152.46429563482494 L 70.17082039324997 149.89442719099986 L 74.03270509831253 155.04360679774996"/><path style="fill:none;stroke:#ff0000;stroke-width:0.1;stroke-linejoin:round" d="M74.15270509831254 155.20360679774998 L 78.01458980337512 160.35278640450008 L 79.27716334551265 157.82763932022502"/><path style="fill:none;stroke:#ff0000;stroke-width:0.1;stroke-linejoin:round" d="M79.36660606461264 157.64875388202503 L 80.62917960675017 155.12360679774997 L 75.48944271910005 152.5537383539249"/>
<path style="fill:none;stroke:#ff0000;stroke-width:0.1;stroke-linejoin:round" d="M62.47278640450003 11.354589803375031 L 63.90557280900008 12.42917960675006 L 63.00480266573755 10.627639320224997"/><path style="fill:none;stroke:#ff0000;stroke-width:0.1;stroke-linejoin:round" d="M62.91535994663756 10.448753882025013 L 62.01458980337503 8.64721359549995 L 61.507294901687516 9.323606797749976"/><path style="fill:none;stroke:#ff0000;stroke-width:0.1;stroke-linejoin:round" d="M61.38729490168751 9.483606797749976 L 60.87999999999999 10.160000000000002 L 62.31278640450003 11.23458980337503"/>
<path style="fill:none;stroke:#ff0000;stroke-width:0.1;stroke-linejoin:round" d="M52.87278640450003 64.84541019662497 L 54.305572809000076 63.77082039324995 L 53.40480266573755 65.572360679775"/><path style="fill:none;stroke:#ff0000;stroke-width:0.1;stroke-linejoin:round" d="M53.31535994663756 65.75124611797499 L 52.41458980337502 67.55278640450004 L 51.907294901687514 66.87639320225001"/><path style="fill:none;stroke:#ff0000;stroke-width:0.1;stroke-linejoin:round" d="M51.78729490168751 66.71639320225002 L 51.28 66.03999999999999 L 52.71278640450004 64.96541019662497"/>
<path style="fill:none;stroke:#ff0000;stroke-width:0.1;stroke-linejoin:round" d="M40.46429563482498 93.68944271909999 L 37.89442719099998 98.82917960674999 L 43.04360679774997 94.9672949016875"/><path style="fill:none;stroke:#ff0000;stroke-width:0.1;stroke-linejoin:round" d="M43.20360679774997 94.84729490168749 L 48.35278640449996 90.985410196625 L 45.827639320224954 89.7228366544875"/><path style="fill:none;stroke:#ff0000;stroke-width:0.1;stroke-linejoin:round" d="M45.64875388202497 89.6333939353875 L 43.123606797749964 88.37082039325001 L 40.55373835392497 93.5105572809"/>
<path style="fill:none;stroke:#ff0000;stroke-width:0.1;stroke-linejoin:round" d="M67.79098300562498 78.6000000000001 L 69.5819660112499 78.6000000000001 L 67.78042572472498 79.50077014326256"/><path style="fill:none;stroke:#ff0000;stroke-width:0.1;stroke-linejoin:round" d="M67.601540286525 79.59021286236255 L 65.80000000000007 80.49098300562503 L 65.80000000000007 79.64549150281255"/><path style="fill:none;stroke:#ff0000;stroke-width:0.1;stroke-linejoin:round" d="M65.80000000000007 79.44549150281256 L 65.80000000000007 78.6000000000001 L 67.59098300562499 78.6000000000001"/>
<path style="fill:none;stroke:#ff0000;stroke-width:0.1;stroke-linejoin:round" d="M43.75777087639996 17.43013155617496 L 38.61803398874988 20.0 L 45.05450849718746 20.0"/><path style="fill:none;stroke:#ff0000;stroke-width:0.1;stroke-linejoin:round" d="M45.254508497187466 20.0 L 51.69098300562506 20.000000000000004 L 50.42840946348753 17.47485291572496"/><path style="fill:none;stroke:#ff0000;stroke-width:0.1;stroke-linejoin:round" d="M50.33896674438754 17.295967477524975 L 49.07639320225002 14.77082039324993 L 43.936656314599944 17.340688837074968"/>
<path style="fill:none;stroke:#ff0000;stroke-width:0.1;stroke-linejoin:round" d="M55.28944271909997 77.33570436517503 L 60.429179606750026 79.90557280900005 L 56.5672949016875 74.75639320225001"/><path style="fill:none;stroke:#ff0000;stroke-width:0.1;stroke-linejoin:round" d="M56.44729490168749 74.59639320225001 L 52.58541019662496 69.44721359549997 L 51.322836654487446 71.972360679775"/><path style="fill:none;stroke:#ff0000;stroke-width:0.1;stroke-linejoin:round" d="M51.233393935387454 72.15124611797498 L 49.97082039324994 74.67639320225001 L 55.11055728089999 77.24626164607504"/>
<path style="fill:none;stroke:#ff0000;stroke-width:0.1;stroke-linejoin:round" d="M81.7999999999999 110.80901699437516 L 81.7999999999999 109.01803398875009 L 82.70077014326243 110.81957427527516"/><path style="fill:none;stroke:#ff0000;stroke-width:0.1;stroke-linejoin:round" d="M82.79021286236242 110.99845971347514 L 83.69098300562496 112.8000000000002 L 82.84549150281242 112.8000000000002"/><path style="fill:none;stroke:#ff0000;stroke-width:0.1;stroke-linejoin:round" d="M82.64549150281243 112.8000000000002 L 81.7999999999999 112.8000000000002 L 81.7999999999999 111.00901699437514"/>
<path style="fill:none;stroke:#ff0000;stroke-width:0.1;stroke-linejoin:round" d="M75.75777087639989 151.56986844382502 L 70.6180339887499 149.0 L 77.05450849718738 149.0"/><path style="fill:none;stroke:#ff0000;stroke-width:0.1;stroke-linejoin:round" d="M77.25450849718737 149.0 L 83.69098300562487 149.0 L 82.42840946348737 151.525147084275"/><path style="fill:none;stroke:#ff0000;stroke-width:0.1;stroke-linejoin:round" d="M82.33896674438738 151.704032522475 L 81.07639320224986 154.22917960674997 L 75.93665631459987 151.65931116292498"/>
<path style="fill:none;stroke:#ff0000;stroke-width:0.1;stroke-linejoin:round" d="M38.83278640450004 78.12541019662496 L 50.505572809000085 69.37082039324991 L 34.44387849382251 72.29112845055494"/><path style="fill:none;stroke:#ff0000;stroke-width:0.1;stroke-linejoin:round" d="M34.24710451180253 72.32690553819492 L 18.185410196624964 75.24721359549996 L 22.53270509831248 81.04360679774997"/><path style="fill:none;stroke:#ff0000;stroke-width:0.1;stroke-linejoin:round" d="M22.652705098312477 81.20360679774997 L 26.999999999999996 87.0 L 38.672786404500044 78.24541019662496"/>
<path style="fill:none;stroke:#ff0000;stroke-width:0.1;stroke-linejoin:round" d="M55.19999999999997 50.009016994374996 L 55.19999999999997 48.21803398875001 L 54.29922985673747 50.019574275275005"/><path style="fill:none;stroke:#ff0000;stroke-width:0.1;stroke-linejoin:round" d="M54.20978713763748 50.19845971347499 L 53.309016994374986 51.99999999999998 L 54.15450849718747 51.99999999999998"/><path style="fill:none;stroke:#ff0000;stroke-width:0.1;stroke-linejoin:round" d="M54.354508497187474 51.99999999999998 L 55.19999999999997 51.99999999999998 L 55.19999999999997 50.209016994375"/>
<path style="fill:none;stroke:#ff0000;stroke-width:0.1;stroke-linejoin:round" d="M21.264295634824954 52.08944271909999 L 5.89442719099992 82.82917960675006 L 36.64360679774998 59.76729490168752"/><path style="fill:none;stroke:#ff0000;stroke-width:0.1;stroke-linejoin:round" d="M36.80360679774998 59.647294901687516 L 67.55278640450004 36.58541019662497 L 52.227639320225 28.922836654487448"/><path style="fill:none;stroke:#ff0000;stroke-width:0.1;stroke-linejoin:round" d="M52.04875388202502 28.833393935387456 L 36.72360679774998 21.170820393249937 L 21.353738353924946 51.91055728090001"/>
<path style="fill:none;stroke:#ff0000;stroke-width:0.1;stroke-linejoin:round" d="M42.400000000000006 83.79098300562505 L 42.400000000000006 85.58196601125012 L 41.49922985673747 83.78042572472505"/><path style="fill:none;stroke:#ff0000;stroke-width:0.1;stroke-linejoin:round" d="M41.40978713763748 83.60154028652506 L 40.509016994374946 81.8 L 41.354508497187474 81.8"/><path style="fill:none;stroke:#ff0000;stroke-width:0.1;stroke-linejoin:round" d="M41.55450849718748 81.8 L 42.400000000000006 81.8 L 42.400000000000006 83.59098300562506"/>
<path style="fill:none;stroke:#ff0000;stroke-width:0.1;stroke-linejoin:round" d="M71.28944271910002 157.33570436517502 L 76.42917960675014 159.9055728090001 L 72.56729490168757 154.75639320225"/><path style="fill:none;stroke:#ff0000;stroke-width:0.1;stroke-linejoin:round" d="M72.44729490168757 154.59639320224997 L 68.58541019662499 149.44721359549987 L 67.32283665448746 151.97236067977494"/><path style="fill:none;stroke:#ff0000;stroke-width:0.1;stroke-linejoin:round" d="M67.23339393538747 152.15124611797492 L 65.97082039324992 154.67639320224998 L 71.11055728090004 157.24626164607506"/>
<path style="fill:none;stroke:#ff0000;stroke-width:0.1;stroke-linejoin:round" d="M58.234589803375044 13.68721359549994 L 59.30917960675008 12.254427190999891 L 58.948871549445066 14.236121506177469"/><path style="fill:none;stroke:#ff0000;stroke-width:0.1;stroke-linejoin:round" d="M58.913094461805066 14.432895488197449 L 58.55278640450005 16.414589803375026 L 57.87639320225003 15.907294901687509"/><path style="fill:none;stroke:#ff0000;stroke-width:0.1;stroke-linejoin:round" d="M57.71639320225003 15.787294901687508 L 57.040000000000006 15.27999999999999 L 58.11458980337504 13.847213595499941"/>
<path style="fill:none;stroke:#ff0000;stroke-width:0.1;stroke-linejoin:round" d="M51.642229123600025 148.63013155617494 L 82.3819660112501 164.0 L 43.94549150281252 164.0"/><path style="fill:none;stroke:#ff0000;stroke-width:0.1;stroke-linejoin:round" d="M43.74549150281252 164.0 L 5.30901699437494 164.0 L 12.971590536512457 148.67485291572495"/><path style="fill:none;stroke:#ff0000;stroke-width:0.1;stroke-linejoin:round" d="M13.061033255612449 148.49596747752497 L 20.723606797749966 133.17082039324993 L 51.46334368540004 148.54068883707498"/>
<path style="fill:none;stroke:#ff0000;stroke-width:0.1;stroke-linejoin:round" d="M37.927023205615015 64.38510213931997 L 32.27331262919995 65.41304951684998 L 38.45232815730001 67.21526237921249"/><path style="fill:none;stroke:#ff0000;stroke-width:0.1;stroke-linejoin:round" d="M38.6443281573 67.2712623792125 L 44.82334368540007 69.07347524157501 L 44.31831426854506 66.29581344887248"/><path style="fill:none;stroke:#ff0000;stroke-width:0.1;stroke-linejoin:round" d="M44.28253718090506 66.0990394668525 L 43.77750776405006 63.32137767414996 L 38.12379718763499 64.34932505167998"/>
<path style="fill:none;stroke:#ff0000;stroke-width:0.1;stroke-linejoin:round" d="M33.67278640450005 87.24541019662499 L 35.105572809000115 86.17082039324993 L 34.204802665737574 87.97236067977502"/><path style="fill:none;stroke:#ff0000;stroke-width:0.1;stroke-linejoin:round" d="M34.11535994663758 88.151246117975 L 33.21458980337504 89.9527864045001 L 32.70729490168752 89.27639320225008"/><path style="fill:none;stroke:#ff0000;stroke-width:0.1;stroke-linejoin:round" d="M32.587294901687514 89.11639320225008 L 32.07999999999999 88.44000000000004 L 33.512786404500055 87.36541019662499"/>
<path style="fill:none;stroke:#ff0000;stroke-width:0.1;stroke-linejoin:round" d="M75.75777087639996 65.43013155617494 L 70.61803398874984 68.0 L 77.05450849718748 68.0"/><path style="fill:none;stroke:#ff0000;stroke-width:0.1;stroke-linejoin:round" d="M77.25450849718747 68.0 L 83.69098300562511 68.0 L 82.42840946348758 65.47485291572494"/><path style="fill:none;stroke:#ff0000;stroke-width:0.1;stroke-linejoin:round" d="M82.33896674438759 65.29596747752495 L 81.07639320225006 62.770820393249885 L 75.93665631459994 65.34068883707495"/>
<path style="fill:none;stroke:#ff0000;stroke-width:0.1;stroke-linejoin:round" d="M68.0 53.209016994374956 L 68.0 38.618033988749914 L 60.699229856737475 53.219574275274965"/><path style="fill:none;stroke:#ff0000;stroke-width:0.1;stroke-linejoin:round" d="M60.60978713763748 53.39845971347495 L 53.30901699437496 68.0 L 60.55450849718748 68.0"/><path style="fill:none;stroke:#ff0000;stroke-width:0.1;stroke-linejoin:round" d="M60.75450849718748 68.0 L 68.0 68.0 L 68.0 53.40901699437496"/>
<path style="fill:none;stroke:#ff0000;stroke-width:0.1;stroke-linejoin:round" d="M56.11278640450025 85.16541019662489 L 57.545572809000404 84.09082039324977 L 55.563878493822685 84.45112845055482"/><path style="fill:none;stroke:#ff0000;stroke-width:0.1;stroke-linejoin:round" d="M55.36710451180271 84.4869055381948 L 53.38541019662498 84.84721359549985 L 53.89270509831253 85.52360679774993"/><path style="fill:none;stroke:#ff0000;stroke-width:0.1;stroke-linejoin:round" d="M54.01270509831254 85.68360679774993 L 54.520000000000095 86.36 L 55.95278640450025 85.2854101966249"/>
<path style="fill:none;stroke:#ff0000;stroke-width:0.1;stroke-linejoin:round" d="M69.20901699437502 80.79999999999991 L 67.41803398875025 80.79999999999991 L 69.21957427527502 79.89922985673753"/><path style="fill:none;stroke:#ff0000;stroke-width:0.1;stroke-linejoin:round" d="M69.398459713475 79.80978713763754 L 71.19999999999978 78.90901699437515 L 71.19999999999978 79.75450849718754"/><path style="fill:none;stroke:#ff0000;stroke-width:0.1;stroke-linejoin:round" d="M71.19999999999978 79.95450849718753 L 71.19999999999978 80.79999999999991 L 69.40901699437501 80.79999999999991"/>
<path style="fill:none;stroke:#ff0000;stroke-width:0.1;stroke-linejoin:round" d="M27.757770876399963 7.569868443825034 L 22.618033988749893 5.0 L 29.05450849718747 5.0"/><path style="fill:none;stroke:#ff0000;stroke-width:0.1;stroke-linejoin:round" d="M29.254508497187473 5.0 L 35.69098300562505 5.0 L 34.428409463487526 7.525147084275039"/><path style="fill:none;stroke:#ff0000;stroke-width:0.1;stroke-linejoin:round" d="M34.338966744387534 7.704032522475022 L 33.07639320225002 10.22917960675006 L 27.936656314599947 7.659311162925026"/>
<path style="fill:none;stroke:#ff0000;stroke-width:0.1;stroke-linejoin:round" d="M69.0 133.20901699437496 L 69.0 118.61803398874991 L 76.30077014326254 133.21957427527497"/><path style="fill:none;stroke:#ff0000;stroke-width:0.1;stroke-linejoin:round" d="M76.39021286236253 133.39845971347495 L 83.69098300562506 148.0 L 76.44549150281253 148.0"/><path style="fill:none;stroke:#ff0000;stroke-width:0.1;stroke-linejoin:round" d="M76.24549150281254 148.0 L 69.0 148.0 L 69.0 133.40901699437495"/>
<path style="fill:none;stroke:#ff0000;stroke-width:0.1;stroke-linejoin:round" d="M37.26429563482495 116.0894427191 L 34.694427190999896 121.2291796067501 L 39.84360679774998 117.36729490168753"/><path style="fill:none;stroke:#ff0000;stroke-width:0.1;stroke-linejoin:round" d="M40.003606797749974 117.24729490168752 L 45.152786404500056 113.38541019662497 L 42.627639320225015 112.12283665448744"/><path style="fill:none;stroke:#ff0000;stroke-width:0.1;stroke-linejoin:round" d="M42.44875388202503 112.03339393538745 L 39.92360679774999 110.77082039324993 L 37.35373835392494 115.91055728090002"/>
<path style="fill:none;stroke:#ff0000;stroke-width:0.1;stroke-linejoin:round" d="M48.63458980337504 62.512786404500076 L 49.70917960675008 63.945572809000126 L 49.34887154944507 61.96387849382255"/><path style="fill:none;stroke:#ff0000;stroke-width:0.1;stroke-linejoin:round" d="M49.31309446180507 61.76710451180257 L 48.95278640450006 59.785410196624994 L 48.276393202250034 60.29270509831251"/><path style="fill:none;stroke:#ff0000;stroke-width:0.1;stroke-linejoin:round" d="M48.11639320225004 60.412705098312514 L 47.440000000000005 60.92000000000003 L 48.51458980337504 62.35278640450008"/>
<path style="fill:none;stroke:#ff0000;stroke-width:0.1;stroke-linejoin:round" d="M45.6454101966249 58.5272135954999 L 44.57082039324986 57.09442719099984 L 46.372360679774935 57.995197334262386"/><path style="fill:none;stroke:#ff0000;stroke-width:0.1;stroke-linejoin:round" d="M46.55124611797492 58.08464005336238 L 48.352786404499994 58.98541019662492 L 47.67639320224997 59.492705098312435"/><path style="fill:none;stroke:#ff0000;stroke-width:0.1;stroke-linejoin:round" d="M47.51639320224997 59.61270509831244 L 46.83999999999995 60.119999999999955 L 45.765410196624906 58.6872135954999"/>
<path style="fill:none;stroke:#ff0000;stroke-width:0.1;stroke-linejoin:round" d="M44.79876777077997 63.34813776741498 L 43.77082039324996 57.694427190999924 L 47.6327050983125 62.84360679774997"/><path style="fill:none;stroke:#ff0000;stroke-width:0.1;stroke-linejoin:round" d="M47.752705098312504 63.00360679774997 L 51.61458980337503 68.15278640450002 L 48.836928010672494 68.65781582135503"/><path style="fill:none;stroke:#ff0000;stroke-width:0.1;stroke-linejoin:round" d="M48.64015402865252 68.69359290899502 L 45.86249223594998 69.19862232585002 L 44.83454485841997 63.54491174943496"/>
<path style="fill:none;stroke:#ff0000;stroke-width:0.1;stroke-linejoin:round" d="M81.67278640449989 103.24541019662522 L 83.10557280899982 102.17082039325027 L 82.20480266573738 103.97236067977519"/><path style="fill:none;stroke:#ff0000;stroke-width:0.1;stroke-linejoin:round" d="M82.11535994663738 104.15124611797518 L 81.21458980337492 105.95278640450012 L 80.70729490168745 105.27639320225013"/><path style="fill:none;stroke:#ff0000;stroke-width:0.1;stroke-linejoin:round" d="M80.58729490168744 105.11639320225014 L 80.07999999999997 104.44000000000017 L 81.51278640449989 103.36541019662522"/>
<path style="fill:none;stroke:#ff0000;stroke-width:0.1;stroke-linejoin:round" d="M77.87278640449992 108.84541019662501 L 79.30557280899986 107.77082039325006 L 77.32387849382243 108.13112845055507"/><path style="fill:none;stroke:#ff0000;stroke-width:0.1;stroke-linejoin:round" d="M77.12710451180246 108.16690553819505 L 75.14541019662504 108.52721359550006 L 75.65270509831251 109.20360679775003"/><path style="fill:none;stroke:#ff0000;stroke-width:0.1;stroke-linejoin:round" d="M75.77270509831251 109.36360679775002 L 76.27999999999999 110.03999999999998 L 77.71278640449992 108.96541019662502"/>
<path style="fill:none;stroke:#ff0000;stroke-width:0.1;stroke-linejoin:round" d="M67.99999999999999 11.609016994374976 L 67.99999999999999 9.818033988749933 L 67.09922985673747 11.619574275274982"/><path style="fill:none;stroke:#ff0000;stroke-width:0.1;stroke-linejoin:round" d="M67.00978713763747 11.798459713474966 L 66.10901699437494 13.600000000000016 L 66.95450849718748 13.600000000000016"/><path style="fill:none;stroke:#ff0000;stroke-width:0.1;stroke-linejoin:round" d="M67.15450849718746 13.600000000000016 L 67.99999999999999 13.600000000000017 L 67.99999999999999 11.809016994374975"/>
<path style="fill:none;stroke:#ff0000;stroke-width:0.1;stroke-linejoin:round" d="M81.80000000000004 94.80901699437507 L 81.80000000000004 93.01803398875015 L 82.7007701432625 94.81957427527507"/><path style="fill:none;stroke:#ff0000;stroke-width:0.1;stroke-linejoin:round" d="M82.7902128623625 94.99845971347506 L 83.69098300562496 96.79999999999998 L 82.8454915028125 96.79999999999998"/><path style="fill:none;stroke:#ff0000;stroke-width:0.1;stroke-linejoin:round" d="M82.6454915028125 96.79999999999998 L 81.80000000000004 96.79999999999998 L 81.80000000000004 95.00901699437506"/>
<path style="fill:none;stroke:#ff0000;stroke-width:0.1;stroke-linejoin:round" d="M60.84541019662498 13.872786404500038 L 59.77082039324996 15.305572809000072 L 60.13112845055496 13.323878493822516"/><path style="fill:none;stroke:#ff0000;stroke-width:0.1;stroke-linejoin:round" d="M60.16690553819496 13.127104511802536 L 60.527213595499965 11.14541019662498 L 61.20360679774999 11.652705098312493"/><path style="fill:none;stroke:#ff0000;stroke-width:0.1;stroke-linejoin:round" d="M61.36360679774999 11.772705098312494 L 62.04000000000001 12.280000000000006 L 60.96541019662499 13.712786404500038"/>
<path style="fill:none;stroke:#ff0000;stroke-width:0.1;stroke-linejoin:round" d="M77.72721359550003 84.95458980337503 L 76.29442719099987 86.02917960675015 L 77.19519733426247 84.22763932022494"/><path style="fill:none;stroke:#ff0000;stroke-width:0.1;stroke-linejoin:round" d="M77.28464005336247 84.04875388202495 L 78.18541019662507 82.24721359549974 L 78.69270509831264 82.92360679774983"/><path style="fill:none;stroke:#ff0000;stroke-width:0.1;stroke-linejoin:round" d="M78.81270509831265 83.08360679774982 L 79.3200000000002 83.75999999999992 L 77.88721359550003 84.83458980337502"/>
<path style="fill:none;stroke:#ff0000;stroke-width:0.1;stroke-linejoin:round" d="M53.0 56.409016994374944 L 53.0 54.61803398874989 L 53.900770143262534 56.419574275274954"/><path style="fill:none;stroke:#ff0000;stroke-width:0.1;stroke-linejoin:round" d="M53.990212862362526 56.59845971347494 L 54.89098300562507 58.400000000000006 L 54.04549150281253 58.400000000000006"/><path style="fill:none;stroke:#ff0000;stroke-width:0.1;stroke-linejoin:round" d="M53.84549150281253 58.400000000000006 L 53.0 58.400000000000006 L 53.0 56.60901699437495"/>
<path style="fill:none;stroke:#ff0000;stroke-width:0.1;stroke-linejoin:round" d="M75.35458980337471 110.4727864044999 L 76.42917960674949 111.90557280899962 L 74.62763932022484 111.0048026657373"/><path style="fill:none;stroke:#ff0000;stroke-width:0.1;stroke-linejoin:round" d="M74.44875388202486 110.91535994663731 L 72.64721359550022 110.01458980337497 L 73.32360679775007 109.50729490168757"/><path style="fill:none;stroke:#ff0000;stroke-width:0.1;stroke-linejoin:round" d="M73.48360679775007 109.38729490168757 L 74.15999999999993 108.88000000000018 L 75.2345898033747 110.3127864044999"/>
<path style="fill:none;stroke:#ff0000;stroke-width:0.1;stroke-linejoin:round" d="M80.79999999999995 94.80901699437507 L 80.79999999999995 93.01803398875013 L 79.89922985673749 94.81957427527507"/><path style="fill:none;stroke:#ff0000;stroke-width:0.1;stroke-linejoin:round" d="M79.8097871376375 94.99845971347506 L 78.90901699437504 96.79999999999998 L 79.7545084971875 96.79999999999998"/><path style="fill:none;stroke:#ff0000;stroke-width:0.1;stroke-linejoin:round" d="M79.95450849718749 96.79999999999998 L 80.79999999999995 96.79999999999998 L 80.79999999999995 95.00901699437506"/>
<path style="fill:none;stroke:#ff0000;stroke-width:0.1;stroke-linejoin:round" d="M80.845410196625 84.12721359549998 L 79.77082039325005 82.69442719100005 L 81.57236067977497 83.59519733426252"/><path style="fill:none;stroke:#ff0000;stroke-width:0.1;stroke-linejoin:round" d="M81.75124611797496 83.68464005336251 L 83.55278640449988 84.58541019662498 L 82.87639320224991 85.09270509831245"/><path style="fill:none;stroke:#ff0000;stroke-width:0.1;stroke-linejoin:round" d="M82.71639320224992 85.21270509831245 L 82.03999999999995 85.71999999999993 L 80.965410196625 84.28721359549998"/>
<path style="fill:none;stroke:#ff0000;stroke-width:0.1;stroke-linejoin:round" d="M77.6872135955002 106.234589803375 L 76.25442719100015 107.30917960675004 L 78.23612150617772 106.94887154944502"/><path style="fill:none;stroke:#ff0000;stroke-width:0.1;stroke-linejoin:round" d="M78.4328954881977 106.91309446180503 L 80.41458980337528 106.55278640450003 L 79.90729490168776 105.87639320224999"/><path style="fill:none;stroke:#ff0000;stroke-width:0.1;stroke-linejoin:round" d="M79.78729490168776 105.71639320224999 L 79.28000000000024 105.03999999999996 L 77.8472135955002 106.114589803375"/>
<path style="fill:none;stroke:#ff0000;stroke-width:0.1;stroke-linejoin:round" d="M37.209016994374984 91.39999999999998 L 35.418033988749855 91.39999999999998 L 37.219574275274994 92.30077014326254"/><path style="fill:none;stroke:#ff0000;stroke-width:0.1;stroke-linejoin:round" d="M37.39845971347498 92.39021286236253 L 39.200000000000124 93.29098300562511 L 39.200000000000124 92.44549150281253"/><path style="fill:none;stroke:#ff0000;stroke-width:0.1;stroke-linejoin:round" d="M39.200000000000124 92.24549150281254 L 39.200000000000124 91.39999999999998 L 37.40901699437499 91.39999999999998"/>
<path style="fill:none;stroke:#ff0000;stroke-width:0.1;stroke-linejoin:round" d="M67.79098300562514 77.60000000000001 L 69.5819660112502 77.60000000000001 L 67.78042572472513 76.69922985673747"/><path style="fill:none;stroke:#ff0000;stroke-width:0.1;stroke-linejoin:round" d="M67.60154028652515 76.60978713763748 L 65.80000000000008 75.70901699437495 L 65.80000000000008 76.55450849718748"/><path style="fill:none;stroke:#ff0000;stroke-width:0.1;stroke-linejoin:round" d="M65.80000000000008 76.75450849718747 L 65.80000000000008 77.60000000000001 L 67.59098300562515 77.60000000000001"/>
<path style="fill:none;stroke:#ff0000;stroke-width:0.1;stroke-linejoin:round" d="M74.52721359549993 91.35458980337494 L 73.09442719099988 92.42917960674998 L 73.99519733426241 90.6276393202249"/><path style="fill:none;stroke:#ff0000;stroke-width:0.1;stroke-linejoin:round" d="M74.0846400533624 90.44875388202492 L 74.98541019662495 88.64721359549984 L 75.49270509831247 89.32360679774986"/><path style="fill:none;stroke:#ff0000;stroke-width:0.1;stroke-linejoin:round" d="M75.61270509831247 89.48360679774986 L 76.11999999999999 90.15999999999988 L 74.68721359549993 91.23458980337493"/>
<path style="fill:none;stroke:#ff0000;stroke-width:0.1;stroke-linejoin:round" d="M0 0 L0.0 169.0 L89.0 169.0 L89.0 0.0 Z"/>
<path style="fill:none;stroke:#ff0000;stroke-width:0.1;stroke-linejoin:round" d="M0 0 L203.2 0 L203.2 266.7 L0 266.7 Z"/>
<path style="fill:none;stroke:#ff0000;stroke-width:0.1;stroke-linejoin:round" d="M6.720696336125804 173.94721359549996 L 4.764999470001589 173.94721359549996 L 4.764999470001589 177.90860732774837"/><path style="fill:none;stroke:#ff0000;stroke-width:0.1;stroke-linejoin:round" d="M4.764999470001589 178.0086073277484 L 4.764999470001589 181.97000105999683 L 6.748335656350806 178.00332868729836"/><path style="fill:none;stroke:#ff0000;stroke-width:0.1;stroke-linejoin:round" d="M6.793057015900802 177.9138859681984 L 8.776393202250018 173.94721359549996 L 6.8206963361258035 173.94721359549996"/>
<path style="fill:none;stroke:#ff0000;stroke-width:0.1;stroke-linejoin:round" d="M16.69569633612581 173.94721359549996 L 14.764999470001612 173.94721359549996 L 14.764999470001612 177.8836073277484"/><path style="fill:none;stroke:#ff0000;stroke-width:0.1;stroke-linejoin:round" d="M14.764999470001612 178.03360732774837 L 14.764999470001612 181.9700010599968 L 16.737155316463312 178.02568936707337"/><path style="fill:none;stroke:#ff0000;stroke-width:0.1;stroke-linejoin:round" d="M16.804237355788306 177.8915252884234 L 18.776393202250006 173.94721359549996 L 16.84569633612581 173.94721359549996"/>
<path style="fill:none;stroke:#ff0000;stroke-width:0.1;stroke-linejoin:round" d="M26.670696336125772 173.94721359550005 L 24.764999470001566 173.94721359550005 L 24.764999470001566 177.85860732774844"/><path style="fill:none;stroke:#ff0000;stroke-width:0.1;stroke-linejoin:round" d="M24.764999470001566 178.05860732774843 L 24.764999470001566 181.97000105999686 L 26.725974976575777 178.04805004684843"/><path style="fill:none;stroke:#ff0000;stroke-width:0.1;stroke-linejoin:round" d="M26.81541769567577 177.86916460864845 L 28.776393202249984 173.94721359550005 L 26.870696336125775 173.94721359550005"/>
<path style="fill:none;stroke:#ff0000;stroke-width:0.1;stroke-linejoin:round" d="M36.64569633612578 173.94721359550005 L 34.76499947000157 173.94721359550005 L 34.76499947000157 177.83360732774844"/><path style="fill:none;stroke:#ff0000;stroke-width:0.1;stroke-linejoin:round" d="M34.76499947000157 178.08360732774844 L 34.76499947000157 181.97000105999686 L 36.71479463668829 178.07041072662344"/><path style="fill:none;stroke:#ff0000;stroke-width:0.1;stroke-linejoin:round" d="M36.82659803556327 177.84680392887344 L 38.776393202249984 173.94721359550005 L 36.89569633612578 173.94721359550005"/>
<path style="fill:none;stroke:#ff0000;stroke-width:0.1;stroke-linejoin:round" d="M46.520696336125866 173.94721359549985 L 44.764999470001655 173.94721359549985 L 44.764999470001655 177.70860732774827"/><path style="fill:none;stroke:#ff0000;stroke-width:0.1;stroke-linejoin:round" d="M44.764999470001655 178.20860732774827 L 44.764999470001655 181.9700010599967 L 46.658892937250876 178.18221412549823"/><path style="fill:none;stroke:#ff0000;stroke-width:0.1;stroke-linejoin:round" d="M46.882499735000856 177.7350005299983 L 48.77639320225008 173.94721359549985 L 47.020696336125866 173.94721359549985"/>

</svg>